<svg width="101" height="100" viewBox="0 0 101 100" fill="none" xmlns="http://www.w3.org/2000/svg">
<path d="M81.2759 54.7469C85.5829 54.8003 89.7816 53.3969 93.1909 50.7643C96.6001 48.1317 99.0197 44.4243 100.057 40.2438C101.095 36.0633 100.689 31.6548 98.9068 27.7336C97.1241 23.8125 94.0688 20.6087 90.2366 18.642L59.8134 3.02009C55.9821 1.05164 51.5981 0.435468 47.3727 1.27155C43.1472 2.10764 39.3283 4.34693 36.5353 7.62611C33.7424 10.9053 32.1394 15.032 31.9865 19.3366C31.8335 23.6413 33.1395 27.8713 35.6926 31.3405C32.1396 31.2956 28.6445 32.2427 25.6003 34.0753C22.5561 35.908 20.0835 38.5535 18.4604 41.7144C16.8373 44.8753 16.1282 48.4263 16.4127 51.9682C16.6972 55.5101 17.9641 58.9023 20.0709 61.7636C16.6672 61.7227 13.3143 62.5918 10.359 64.281C7.40363 65.9701 4.95318 68.4181 3.26099 71.3717C1.5688 74.3253 0.696315 77.6773 0.733752 81.0811C0.77119 84.4849 1.71719 87.8169 3.47393 90.7326C5.23067 93.6482 7.73438 96.0417 10.7261 97.6654C13.7179 99.2892 17.0891 100.084 20.4911 99.9685C23.8932 99.8528 27.2025 98.8303 30.077 97.007C32.9514 95.1836 35.2866 92.6254 36.8411 89.5971L47.1142 69.5905C47.6429 72.4118 48.8006 75.0776 50.5011 77.39C52.2017 79.7024 54.4015 81.6018 56.937 82.9471C59.4726 84.2925 62.2787 85.0492 65.1469 85.161C68.015 85.2728 70.8715 84.7369 73.5041 83.593C76.1367 82.4491 78.4777 80.7267 80.3531 78.5537C82.2285 76.3808 83.5902 73.8131 84.3369 71.0416C85.0836 68.2701 85.1962 65.3659 84.6662 62.5449C84.1363 59.7239 82.9775 57.0585 81.2759 54.7469V54.7469ZM94.9287 42.5353C93.0983 46.0902 89.9329 48.7743 86.1267 49.9992C82.3204 51.2241 78.1837 50.8898 74.6235 49.0696L74.6149 49.0649L74.5974 49.0564L61.1929 42.1728L74.9767 15.3292L88.3987 22.2212C91.9552 24.0525 94.64 27.2197 95.8642 31.028C97.0884 34.8363 96.752 38.9747 94.9287 42.5353V42.5353ZM62.3603 47.2953C60.7893 47.5922 59.2614 48.0834 57.8117 48.7576L59.355 45.7521L62.3603 47.2953ZM37.6614 13.1293C39.4927 9.57285 42.6599 6.88804 46.4682 5.66385C50.2765 4.43967 54.4149 4.77608 57.9755 6.5993L71.3975 13.4913L57.6137 40.3349L44.1916 33.4429L44.183 33.4388C40.6292 31.606 37.9471 28.439 36.7246 24.6319C35.5021 20.8248 35.839 16.6884 37.6614 13.1293V13.1293ZM12.948 94.289C11.1837 93.3849 9.61494 92.142 8.33129 90.6313C7.04764 89.1206 6.07428 87.3718 5.46683 85.4847C4.85939 83.5977 4.62978 81.6094 4.79111 79.6336C4.95245 77.6578 5.50158 75.7331 6.40712 73.9696C7.31265 72.2061 8.55684 70.6384 10.0686 69.356C11.5803 68.0735 13.3299 67.1016 15.2175 66.4957C17.105 65.8898 19.0934 65.6618 21.0691 65.8247C23.0448 65.9877 24.969 66.5384 26.7318 67.4454L40.154 74.337L33.2619 87.7592C31.4306 91.3156 28.2634 94.0004 24.4551 95.2246C20.6468 96.4487 16.5085 96.1122 12.948 94.289V94.289ZM41.9919 70.7578L28.5697 63.8662C25.0114 62.0383 22.3246 58.8721 21.1001 55.0638C19.8756 51.2555 20.2136 47.1168 22.0398 43.5577C23.866 39.9985 27.0308 37.3102 30.8385 36.0839C34.6462 34.8575 38.7851 35.1935 42.3452 37.018L42.3535 37.0226L55.7758 43.9142L41.9919 70.7578ZM58.9929 79.4881C55.4361 77.6603 52.7503 74.4951 51.5259 70.6882C50.3014 66.8812 50.6385 62.7438 52.4629 59.1852C54.2873 55.6266 57.4499 52.9378 61.2557 51.7097C65.0615 50.4816 69.1992 50.8146 72.7595 52.6357L72.7768 52.6445L72.7854 52.6487C76.3406 54.4799 79.0234 57.6476 80.2442 61.4558C81.465 65.2641 81.1241 69.4012 79.2962 72.9581C77.4683 76.515 74.3031 79.2008 70.4961 80.4252C66.689 81.6497 62.5516 81.3126 58.9929 79.4881V79.4881Z" fill="url(#paint0_linear_4_297)"/>
<defs>
<linearGradient id="paint0_linear_4_297" x1="75.025" y1="10.8311" x2="26.3217" y2="105.679" gradientUnits="userSpaceOnUse">
<stop stop-color="#00FFB2"/>
<stop offset="1" stop-color="#3300FF"/>
</linearGradient>
</defs>
</svg>
