<svg width="48" height="48" viewBox="0 0 48 48" fill="none" xmlns="http://www.w3.org/2000/svg">
<circle cx="24" cy="24" r="24" fill="#360DDB"/>
<path d="M30.3211 14.6115C30.413 13.6002 29.1137 13.1115 28.5165 13.9328L26.6494 16.5C26.6494 19.8333 18.9776 31.6714 17.1489 33.5C15.3203 35.3476 31.0019 28.5001 27.6789 28.5001C24.3362 28.5001 21.7407 27.5762 19.8924 25.7286C18.0637 23.9001 27.6789 15.3333 27.6789 12L25.0196 11.34C24.3504 11.174 23.7179 11.719 23.7833 12.4054L24.5448 20.4018C24.6099 21.085 25.0223 21.6865 25.6362 21.9935C26.2947 22.3227 27.0406 22.4349 27.7668 22.3138L27.9223 22.2879C28.9397 22.1183 29.7146 21.2836 29.8079 20.2564L30.3211 14.6115Z" fill="url(#paint0_linear_120_116)"/>
<defs>
<linearGradient id="paint0_linear_120_116" x1="41.0532" y1="7.89564" x2="20.0532" y2="25.8957" gradientUnits="userSpaceOnUse">
<stop stop-color="white" stop-opacity="0.7"/>
<stop offset="1" stop-color="white"/>
</linearGradient>
</defs>
</svg>
