<svg width="307" height="61" viewBox="0 0 307 61" fill="none" xmlns="http://www.w3.org/2000/svg">
<path d="M78.1 48.45C75.8 48.45 73.8333 47.95 72.2 46.95C70.5667 45.9167 69.3167 44.3833 68.45 42.35C67.6167 40.2833 67.2 37.65 67.2 34.45C67.2 31.2167 67.6 28.5833 68.4 26.55C69.2 24.4833 70.4 22.95 72 21.95C73.6333 20.95 75.6667 20.45 78.1 20.45C80.5667 20.45 82.8 21.0333 84.8 22.2C86.8333 23.3333 88.4333 24.95 89.6 27.05C90.8 29.1167 91.4 31.5833 91.4 34.45C91.4 37.3167 90.8 39.8 89.6 41.9C88.4333 44 86.8333 45.6167 84.8 46.75C82.8 47.8833 80.5667 48.45 78.1 48.45ZM61.05 57.7V20.9H70.1V25.5L70.05 34.45L70.55 43.45V57.7H61.05ZM76.1 40.9C77.1667 40.9 78.1167 40.65 78.95 40.15C79.8167 39.65 80.5 38.9167 81 37.95C81.5333 36.9833 81.8 35.8167 81.8 34.45C81.8 33.0833 81.5333 31.9167 81 30.95C80.5 29.9833 79.8167 29.25 78.95 28.75C78.1167 28.25 77.1667 28 76.1 28C75.0333 28 74.0667 28.25 73.2 28.75C72.3667 29.25 71.6833 29.9833 71.15 30.95C70.65 31.9167 70.4 33.0833 70.4 34.45C70.4 35.8167 70.65 36.9833 71.15 37.95C71.6833 38.9167 72.3667 39.65 73.2 40.15C74.0667 40.65 75.0333 40.9 76.1 40.9ZM111.78 48V42.95L111.13 41.7V32.4C111.13 30.9 110.663 29.75 109.73 28.95C108.83 28.1167 107.38 27.7 105.38 27.7C104.08 27.7 102.763 27.9167 101.43 28.35C100.096 28.75 98.963 29.3167 98.0297 30.05L94.8297 23.6C96.363 22.6 98.1964 21.8333 100.33 21.3C102.496 20.7333 104.646 20.45 106.78 20.45C111.18 20.45 114.58 21.4667 116.98 23.5C119.413 25.5 120.63 28.65 120.63 32.95V48H111.78ZM103.78 48.45C101.613 48.45 99.7797 48.0833 98.2797 47.35C96.7797 46.6167 95.6297 45.6167 94.8297 44.35C94.063 43.0833 93.6797 41.6667 93.6797 40.1C93.6797 38.4333 94.0964 37 94.9297 35.8C95.7964 34.5667 97.113 33.6333 98.8797 33C100.646 32.3333 102.93 32 105.73 32H112.13V36.95H107.03C105.496 36.95 104.413 37.2 103.78 37.7C103.18 38.2 102.88 38.8667 102.88 39.7C102.88 40.5333 103.196 41.2 103.83 41.7C104.463 42.2 105.33 42.45 106.43 42.45C107.463 42.45 108.396 42.2 109.23 41.7C110.096 41.1667 110.73 40.3667 111.13 39.3L112.43 42.8C111.93 44.6667 110.946 46.0833 109.48 47.05C108.046 47.9833 106.146 48.45 103.78 48.45ZM138.726 48.45C135.26 48.45 132.56 47.6 130.626 45.9C128.693 44.1667 127.726 41.5667 127.726 38.1V14.85H137.226V38C137.226 38.9667 137.493 39.7333 138.026 40.3C138.56 40.8333 139.243 41.1 140.076 41.1C141.21 41.1 142.176 40.8167 142.976 40.25L145.326 46.9C144.526 47.4333 143.543 47.8167 142.376 48.05C141.21 48.3167 139.993 48.45 138.726 48.45ZM123.776 29V21.9H143.426V29H123.776ZM162.408 48.45C159.208 48.45 156.408 47.85 154.008 46.65C151.642 45.4167 149.792 43.75 148.458 41.65C147.158 39.5167 146.508 37.1 146.508 34.4C146.508 31.7 147.142 29.3 148.408 27.2C149.708 25.0667 151.492 23.4167 153.758 22.25C156.025 21.05 158.575 20.45 161.408 20.45C164.075 20.45 166.508 21 168.708 22.1C170.908 23.1667 172.658 24.75 173.958 26.85C175.258 28.95 175.908 31.5 175.908 34.5C175.908 34.8333 175.892 35.2167 175.858 35.65C175.825 36.0833 175.792 36.4833 175.758 36.85H154.308V31.85H170.708L167.108 33.25C167.142 32.0167 166.908 30.95 166.408 30.05C165.942 29.15 165.275 28.45 164.408 27.95C163.575 27.45 162.592 27.2 161.458 27.2C160.325 27.2 159.325 27.45 158.458 27.95C157.625 28.45 156.975 29.1667 156.508 30.1C156.042 31 155.808 32.0667 155.808 33.3V34.75C155.808 36.0833 156.075 37.2333 156.608 38.2C157.175 39.1667 157.975 39.9167 159.008 40.45C160.042 40.95 161.275 41.2 162.708 41.2C164.042 41.2 165.175 41.0167 166.108 40.65C167.075 40.25 168.025 39.65 168.958 38.85L173.958 44.05C172.658 45.4833 171.058 46.5833 169.158 47.35C167.258 48.0833 165.008 48.45 162.408 48.45ZM180.288 48V20.9H189.338V28.8L187.988 26.55C188.788 24.5167 190.088 23 191.888 22C193.688 20.9667 195.872 20.45 198.438 20.45V29C198.005 28.9333 197.622 28.9 197.288 28.9C196.988 28.8667 196.655 28.85 196.288 28.85C194.355 28.85 192.788 29.3833 191.588 30.45C190.388 31.4833 189.788 33.1833 189.788 35.55V48H180.288ZM220.009 20.45C222.109 20.45 224.009 20.8833 225.709 21.75C227.409 22.5833 228.742 23.8833 229.709 25.65C230.709 27.4167 231.209 29.7 231.209 32.5V48H221.709V34.05C221.709 32.1167 221.309 30.7167 220.509 29.85C219.742 28.95 218.659 28.5 217.259 28.5C216.259 28.5 215.342 28.7333 214.509 29.2C213.675 29.6333 213.025 30.3167 212.559 31.25C212.092 32.1833 211.859 33.4 211.859 34.9V48H202.359V20.9H211.409V28.6L209.659 26.35C210.692 24.3833 212.109 22.9167 213.909 21.95C215.709 20.95 217.742 20.45 220.009 20.45ZM251.715 48.45C248.515 48.45 245.715 47.85 243.315 46.65C240.948 45.4167 239.098 43.75 237.765 41.65C236.465 39.5167 235.815 37.1 235.815 34.4C235.815 31.7 236.448 29.3 237.715 27.2C239.015 25.0667 240.798 23.4167 243.065 22.25C245.332 21.05 247.882 20.45 250.715 20.45C253.382 20.45 255.815 21 258.015 22.1C260.215 23.1667 261.965 24.75 263.265 26.85C264.565 28.95 265.215 31.5 265.215 34.5C265.215 34.8333 265.198 35.2167 265.165 35.65C265.132 36.0833 265.098 36.4833 265.065 36.85H243.615V31.85H260.015L256.415 33.25C256.448 32.0167 256.215 30.95 255.715 30.05C255.248 29.15 254.582 28.45 253.715 27.95C252.882 27.45 251.898 27.2 250.765 27.2C249.632 27.2 248.632 27.45 247.765 27.95C246.932 28.45 246.282 29.1667 245.815 30.1C245.348 31 245.115 32.0667 245.115 33.3V34.75C245.115 36.0833 245.382 37.2333 245.915 38.2C246.482 39.1667 247.282 39.9167 248.315 40.45C249.348 40.95 250.582 41.2 252.015 41.2C253.348 41.2 254.482 41.0167 255.415 40.65C256.382 40.25 257.332 39.65 258.265 38.85L263.265 44.05C261.965 45.4833 260.365 46.5833 258.465 47.35C256.565 48.0833 254.315 48.45 251.715 48.45Z" fill="white"/>
<path d="M270.045 48V13H278.195L297.495 36.3H293.645V13H303.345V48H295.195L275.895 24.7H279.745V48H270.045Z" fill="#360DDB"/>
<circle cx="24" cy="35" r="24" fill="#360DDB"/>
<path d="M30.3211 27.6115C30.413 26.6002 29.1137 26.1115 28.5165 26.9328L26.6494 29.5C26.6494 32.8333 18.9776 44.6714 17.1489 46.5C15.3203 48.3476 31.0019 41.5001 27.6789 41.5001C24.3362 41.5001 21.7407 40.5762 19.8924 38.7286C18.0637 36.9001 27.6789 28.3333 27.6789 25L25.0196 24.34C24.3504 24.174 23.7179 24.719 23.7833 25.4054L24.5448 33.4018C24.6099 34.085 25.0223 34.6865 25.6362 34.9935V34.9935C26.2947 35.3227 27.0406 35.4349 27.7668 35.3138L27.9223 35.2879C28.9397 35.1183 29.7146 34.2836 29.8079 33.2564L30.3211 27.6115Z" fill="url(#paint0_linear_152_15)"/>
<defs>
<linearGradient id="paint0_linear_152_15" x1="41.0532" y1="20.8956" x2="20.0532" y2="38.8957" gradientUnits="userSpaceOnUse">
<stop stop-color="white" stop-opacity="0.7"/>
<stop offset="1" stop-color="white"/>
</linearGradient>
</defs>
</svg>
