<svg width="88" height="107" viewBox="0 0 88 107" fill="none" xmlns="http://www.w3.org/2000/svg">
<g clip-path="url(#clip0_213_135)">
<g opacity="0.5">
<path d="M62.6608 2.7825C62.6608 4.04754 63.7257 5.07306 65.0394 5.07306C66.353 5.07306 67.418 4.04754 67.418 2.7825C67.418 1.51746 66.353 0.491943 65.0394 0.491943C63.7257 0.491943 62.6608 1.51746 62.6608 2.7825Z" fill="#6FFFBA"/>
<path d="M21.2731 2.7825C21.2731 4.04754 22.338 5.07306 23.6517 5.07306C24.9653 5.07306 26.0303 4.04754 26.0303 2.7825C26.0303 1.51746 24.9653 0.491943 23.6517 0.491943C22.338 0.491943 21.2731 1.51746 21.2731 2.7825Z" fill="#6FFFBA"/>
<path d="M82.6412 2.7825C82.6412 4.04754 83.7062 5.07306 85.0198 5.07306C86.3335 5.07306 87.3984 4.04754 87.3984 2.7825C87.3984 1.51746 86.3335 0.491943 85.0198 0.491943C83.7062 0.491943 82.6412 1.51746 82.6412 2.7825Z" fill="#6FFFBA"/>
<path d="M42.2047 2.7825C42.2047 4.04754 43.2697 5.07306 44.5833 5.07306C45.897 5.07306 46.9619 4.04754 46.9619 2.7825C46.9619 1.51746 45.897 0.491943 44.5833 0.491943C43.2697 0.491943 42.2047 1.51746 42.2047 2.7825Z" fill="#6FFFBA"/>
<path d="M0.818001 2.7825C0.818001 4.04754 1.88294 5.07306 3.1966 5.07306C4.51026 5.07306 5.5752 4.04754 5.5752 2.7825C5.5752 1.51746 4.51026 0.491943 3.1966 0.491943C1.88294 0.491943 0.818001 1.51746 0.818001 2.7825Z" fill="#6FFFBA"/>
<path d="M62.6608 22.9392C62.6608 24.2043 63.7257 25.2298 65.0394 25.2298C66.353 25.2298 67.418 24.2043 67.418 22.9392C67.418 21.6742 66.353 20.6487 65.0394 20.6487C63.7257 20.6487 62.6608 21.6742 62.6608 22.9392Z" fill="#6FFFBA"/>
<path d="M21.2731 22.9392C21.2731 24.2043 22.338 25.2298 23.6517 25.2298C24.9653 25.2298 26.0303 24.2043 26.0303 22.9392C26.0303 21.6742 24.9653 20.6487 23.6517 20.6487C22.338 20.6487 21.2731 21.6742 21.2731 22.9392Z" fill="#6FFFBA"/>
<path d="M82.6412 22.9392C82.6412 24.2043 83.7062 25.2298 85.0198 25.2298C86.3335 25.2298 87.3984 24.2043 87.3984 22.9392C87.3984 21.6742 86.3335 20.6487 85.0198 20.6487C83.7062 20.6487 82.6412 21.6742 82.6412 22.9392Z" fill="#6FFFBA"/>
<path d="M42.2047 22.9392C42.2047 24.2043 43.2697 25.2298 44.5833 25.2298C45.897 25.2298 46.9619 24.2043 46.9619 22.9392C46.9619 21.6742 45.897 20.6487 44.5833 20.6487C43.2697 20.6487 42.2047 21.6742 42.2047 22.9392Z" fill="#6FFFBA"/>
<path d="M0.818 22.9392C0.818 24.2043 1.88293 25.2298 3.1966 25.2298C4.51026 25.2298 5.5752 24.2043 5.5752 22.9392C5.5752 21.6742 4.51026 20.6487 3.1966 20.6487C1.88293 20.6487 0.818 21.6742 0.818 22.9392Z" fill="#6FFFBA"/>
<path d="M62.6608 43.0965C62.6608 44.3615 63.7257 45.387 65.0394 45.387C66.353 45.387 67.418 44.3615 67.418 43.0965C67.418 41.8314 66.353 40.8059 65.0394 40.8059C63.7257 40.8059 62.6608 41.8314 62.6608 43.0965Z" fill="#6FFFBA"/>
<path d="M62.6608 103.109C62.6608 104.374 63.7257 105.399 65.0394 105.399C66.353 105.399 67.418 104.374 67.418 103.109C67.418 101.844 66.353 100.818 65.0394 100.818C63.7257 100.818 62.6608 101.844 62.6608 103.109Z" fill="#6FFFBA"/>
<path d="M21.2731 43.0965C21.2731 44.3615 22.338 45.387 23.6517 45.387C24.9653 45.387 26.0303 44.3615 26.0303 43.0965C26.0303 41.8314 24.9653 40.8059 23.6517 40.8059C22.338 40.8059 21.2731 41.8314 21.2731 43.0965Z" fill="#6FFFBA"/>
<path d="M21.2731 103.109C21.2731 104.374 22.338 105.399 23.6517 105.399C24.9653 105.399 26.0303 104.374 26.0303 103.109C26.0303 101.844 24.9653 100.818 23.6517 100.818C22.338 100.818 21.2731 101.844 21.2731 103.109Z" fill="#6FFFBA"/>
<path d="M82.6412 43.0965C82.6412 44.3615 83.7062 45.387 85.0198 45.387C86.3335 45.387 87.3984 44.3615 87.3984 43.0965C87.3984 41.8314 86.3335 40.8059 85.0198 40.8059C83.7062 40.8059 82.6412 41.8314 82.6412 43.0965Z" fill="#6FFFBA"/>
<path d="M82.6412 103.109C82.6412 104.374 83.7062 105.399 85.0198 105.399C86.3335 105.399 87.3984 104.374 87.3984 103.109C87.3984 101.844 86.3335 100.818 85.0198 100.818C83.7062 100.818 82.6412 101.844 82.6412 103.109Z" fill="#6FFFBA"/>
<path d="M42.2047 43.0965C42.2047 44.3615 43.2697 45.387 44.5833 45.387C45.897 45.387 46.9619 44.3615 46.9619 43.0965C46.9619 41.8314 45.897 40.8059 44.5833 40.8059C43.2697 40.8059 42.2047 41.8314 42.2047 43.0965Z" fill="#6FFFBA"/>
<path d="M42.2047 103.109C42.2047 104.374 43.2697 105.399 44.5833 105.399C45.897 105.399 46.9619 104.374 46.9619 103.109C46.9619 101.844 45.897 100.818 44.5833 100.818C43.2697 100.818 42.2047 101.844 42.2047 103.109Z" fill="#6FFFBA"/>
<path d="M0.818001 43.0965C0.818001 44.3615 1.88294 45.387 3.1966 45.387C4.51026 45.387 5.5752 44.3615 5.5752 43.0965C5.5752 41.8314 4.51026 40.8059 3.1966 40.8059C1.88294 40.8059 0.818001 41.8314 0.818001 43.0965Z" fill="#6FFFBA"/>
<path d="M0.818007 103.109C0.818007 104.374 1.88293 105.399 3.1966 105.399C4.51026 105.399 5.5752 104.374 5.5752 103.109C5.5752 101.844 4.51026 100.818 3.1966 100.818C1.88293 100.818 0.818007 101.844 0.818007 103.109Z" fill="#6FFFBA"/>
<path d="M62.6608 63.2532C62.6608 64.5182 63.7257 65.5438 65.0394 65.5438C66.353 65.5438 67.418 64.5182 67.418 63.2532C67.418 61.9882 66.353 60.9626 65.0394 60.9626C63.7257 60.9626 62.6608 61.9882 62.6608 63.2532Z" fill="#6FFFBA"/>
<path d="M21.2731 63.2532C21.2731 64.5182 22.338 65.5438 23.6517 65.5438C24.9653 65.5438 26.0303 64.5182 26.0303 63.2532C26.0303 61.9882 24.9653 60.9626 23.6517 60.9626C22.338 60.9626 21.2731 61.9882 21.2731 63.2532Z" fill="#6FFFBA"/>
<path d="M82.6412 63.2532C82.6412 64.5182 83.7062 65.5438 85.0198 65.5438C86.3335 65.5438 87.3984 64.5182 87.3984 63.2532C87.3984 61.9882 86.3335 60.9626 85.0198 60.9626C83.7062 60.9626 82.6412 61.9882 82.6412 63.2532Z" fill="#6FFFBA"/>
<path d="M42.2047 63.2532C42.2047 64.5182 43.2697 65.5438 44.5833 65.5438C45.897 65.5438 46.9619 64.5182 46.9619 63.2532C46.9619 61.9882 45.897 60.9626 44.5833 60.9626C43.2697 60.9626 42.2047 61.9882 42.2047 63.2532Z" fill="#6FFFBA"/>
<path d="M0.818001 63.2532C0.818001 64.5182 1.88294 65.5438 3.1966 65.5438C4.51026 65.5438 5.5752 64.5182 5.5752 63.2532C5.5752 61.9882 4.51026 60.9626 3.1966 60.9626C1.88294 60.9626 0.818001 61.9882 0.818001 63.2532Z" fill="#6FFFBA"/>
<path d="M62.6608 83.4097C62.6608 84.6747 63.7257 85.7003 65.0394 85.7003C66.353 85.7003 67.418 84.6747 67.418 83.4097C67.418 82.1447 66.353 81.1191 65.0394 81.1191C63.7257 81.1191 62.6608 82.1447 62.6608 83.4097Z" fill="#6FFFBA"/>
<path d="M21.2731 83.4097C21.2731 84.6747 22.338 85.7003 23.6517 85.7003C24.9653 85.7003 26.0303 84.6747 26.0303 83.4097C26.0303 82.1447 24.9653 81.1191 23.6517 81.1191C22.338 81.1191 21.2731 82.1447 21.2731 83.4097Z" fill="#6FFFBA"/>
<path d="M82.6412 83.4097C82.6412 84.6747 83.7062 85.7003 85.0198 85.7003C86.3335 85.7003 87.3984 84.6747 87.3984 83.4097C87.3984 82.1447 86.3335 81.1191 85.0198 81.1191C83.7062 81.1191 82.6412 82.1447 82.6412 83.4097Z" fill="#6FFFBA"/>
<path d="M42.2047 83.4097C42.2047 84.6747 43.2697 85.7003 44.5833 85.7003C45.897 85.7003 46.9619 84.6747 46.9619 83.4097C46.9619 82.1447 45.897 81.1191 44.5833 81.1191C43.2697 81.1191 42.2047 82.1447 42.2047 83.4097Z" fill="#6FFFBA"/>
<path d="M0.818001 83.4097C0.818001 84.6747 1.88294 85.7003 3.1966 85.7003C4.51026 85.7003 5.5752 84.6747 5.5752 83.4097C5.5752 82.1447 4.51026 81.1191 3.1966 81.1191C1.88294 81.1191 0.818001 82.1447 0.818001 83.4097Z" fill="#6FFFBA"/>
</g>
</g>
<defs>
<clipPath id="clip0_213_135">
<rect width="87.0565" height="105.824" fill="white" transform="translate(0.817383 0.491943)"/>
</clipPath>
</defs>
</svg>
