<svg width="124" height="118" viewBox="0 0 124 118" fill="none" xmlns="http://www.w3.org/2000/svg">
<path d="M1.75244 0.901149C1.75244 1.14015 1.66014 1.36936 1.49582 1.53836C1.3315 1.70736 1.10861 1.80232 0.876221 1.80232C0.643831 1.80232 0.420946 1.70736 0.256622 1.53836C0.0922973 1.36936 4.87065e-08 1.14015 4.87065e-08 0.901149C4.87065e-08 0.662227 0.0922808 0.433086 0.256551 0.264143C0.42082 0.0951993 0.643623 0.000293247 0.875936 0.000293247C1.10825 0.000293247 1.33105 0.0951993 1.49532 0.264143C1.65959 0.433086 1.75244 0.662227 1.75244 0.901149ZM12.8283 0.901149C12.8283 1.14007 12.7361 1.36921 12.5718 1.53816C12.4075 1.7071 12.1847 1.80201 11.9524 1.80201C11.7201 1.80201 11.4973 1.7071 11.3331 1.53816C11.1688 1.36921 11.0765 1.14007 11.0765 0.901149C11.0765 0.662227 11.1688 0.433086 11.3331 0.264143C11.4973 0.0951993 11.7201 0.000293247 11.9524 0.000293247C12.1847 0.000293247 12.4075 0.0951993 12.5718 0.264143C12.7361 0.433086 12.8283 0.662227 12.8283 0.901149ZM23.9049 0.901149C23.9049 1.14015 23.8126 1.36936 23.6482 1.53836C23.4839 1.70736 23.261 1.80232 23.0286 1.80232C22.7962 1.80232 22.5734 1.70736 22.409 1.53836C22.2447 1.36936 22.1524 1.14015 22.1524 0.901149C22.1524 0.662148 22.2447 0.432941 22.409 0.263941C22.5734 0.0949414 22.7962 0 23.0286 0C23.261 0 23.4839 0.0949414 23.6482 0.263941C23.8126 0.432941 23.9049 0.662148 23.9049 0.901149ZM34.9814 0.901149C34.9814 1.14015 34.889 1.36936 34.7247 1.53836C34.5604 1.70736 34.3375 1.80232 34.1051 1.80232C33.8728 1.80232 33.6499 1.70736 33.4855 1.53836C33.3212 1.36936 33.2289 1.14015 33.2289 0.901149C33.2289 0.662227 33.3212 0.433086 33.4855 0.264143C33.6497 0.0951993 33.8726 0.000293247 34.1049 0.000293247C34.3372 0.000293247 34.5599 0.0951993 34.7242 0.264143C34.8885 0.433086 34.9814 0.662227 34.9814 0.901149ZM46.0579 0.901149C46.0579 1.14015 45.9655 1.36936 45.8012 1.53836C45.6369 1.70736 45.414 1.80232 45.1816 1.80232C44.9492 1.80232 44.7264 1.70736 44.5621 1.53836C44.3977 1.36936 44.3054 1.14015 44.3054 0.901149C44.3054 0.662227 44.3977 0.433086 44.562 0.264143C44.7262 0.0951993 44.949 0.000293247 45.1813 0.000293247C45.4137 0.000293247 45.6365 0.0951993 45.8007 0.264143C45.965 0.433086 46.0579 0.662227 46.0579 0.901149ZM57.1338 0.901149C57.1338 1.14007 57.0415 1.36921 56.8772 1.53816C56.713 1.7071 56.4902 1.80201 56.2579 1.80201C56.0255 1.80201 55.8027 1.7071 55.6385 1.53816C55.4742 1.36921 55.3819 1.14007 55.3819 0.901149C55.3819 0.662227 55.4742 0.433086 55.6385 0.264143C55.8027 0.0951993 56.0255 0.000293247 56.2579 0.000293247C56.4902 0.000293247 56.713 0.0951993 56.8772 0.264143C57.0415 0.433086 57.1338 0.662227 57.1338 0.901149ZM68.2103 0.901149C68.2103 1.14007 68.118 1.36921 67.9538 1.53816C67.7895 1.7071 67.5667 1.80201 67.3344 1.80201C67.1021 1.80201 66.8793 1.7071 66.715 1.53816C66.5507 1.36921 66.4584 1.14007 66.4584 0.901149C66.4584 0.662227 66.5507 0.433086 66.715 0.264143C66.8793 0.0951993 67.1021 0.000293247 67.3344 0.000293247C67.5667 0.000293247 67.7895 0.0951993 67.9538 0.264143C68.118 0.433086 68.2103 0.662227 68.2103 0.901149ZM79.2874 0.901149C79.2874 1.14015 79.195 1.36936 79.0307 1.53836C78.8664 1.70736 78.6436 1.80232 78.4112 1.80232C78.1788 1.80232 77.9559 1.70736 77.7916 1.53836C77.6272 1.36936 77.5349 1.14015 77.5349 0.901149C77.5349 0.662148 77.6272 0.432941 77.7916 0.263941C77.9559 0.0949414 78.1788 0 78.4112 0C78.6436 0 78.8664 0.0949414 79.0307 0.263941C79.195 0.432941 79.2874 0.662148 79.2874 0.901149ZM90.3639 0.901149C90.3639 1.14015 90.2716 1.36936 90.1072 1.53836C89.9429 1.70736 89.72 1.80232 89.4876 1.80232C89.2552 1.80232 89.0324 1.70736 88.8681 1.53836C88.7037 1.36936 88.6114 1.14015 88.6114 0.901149C88.6114 0.662227 88.7037 0.433086 88.868 0.264143C89.0322 0.0951993 89.255 0.000293247 89.4874 0.000293247C89.7197 0.000293247 89.9425 0.0951993 90.1067 0.264143C90.271 0.433086 90.3639 0.662227 90.3639 0.901149ZM101.44 0.901149C101.44 1.14023 101.348 1.36952 101.184 1.53858C101.019 1.70763 100.796 1.80261 100.564 1.80261C100.331 1.80261 100.108 1.70763 99.944 1.53858C99.7797 1.36952 99.6873 1.14023 99.6873 0.901149C99.6873 0.662148 99.7797 0.432941 99.944 0.263941C100.108 0.0949414 100.331 0 100.564 0C100.796 0 101.019 0.0949414 101.183 0.263941C101.347 0.432941 101.44 0.662148 101.44 0.901149ZM112.516 0.901149C112.516 1.14007 112.424 1.36921 112.26 1.53816C112.095 1.7071 111.873 1.80201 111.64 1.80201C111.408 1.80201 111.185 1.7071 111.021 1.53816C110.857 1.36921 110.764 1.14007 110.764 0.901149C110.764 0.662227 110.857 0.433086 111.021 0.264143C111.185 0.0951993 111.408 0.000293247 111.64 0.000293247C111.873 0.000293247 112.095 0.0951993 112.26 0.264143C112.424 0.433086 112.516 0.662227 112.516 0.901149ZM123.593 0.901149C123.593 1.14015 123.5 1.36936 123.336 1.53836C123.172 1.70736 122.949 1.80232 122.717 1.80232C122.484 1.80232 122.261 1.70736 122.097 1.53836C121.933 1.36936 121.84 1.14015 121.84 0.901149C121.84 0.662148 121.933 0.432941 122.097 0.263941C122.261 0.0949414 122.484 0 122.717 0C122.949 0 123.172 0.0949414 123.336 0.263941C123.5 0.432941 123.593 0.662148 123.593 0.901149ZM1.75244 12.4459C1.7524 12.5643 1.72972 12.6814 1.68565 12.7908C1.64158 12.9001 1.577 12.9994 1.49561 13.083C1.41421 13.1667 1.31758 13.233 1.21126 13.2783C1.10493 13.3235 0.991004 13.3468 0.875936 13.3468C0.760868 13.3467 0.646911 13.3234 0.540617 13.2781C0.434322 13.2327 0.337782 13.1663 0.256444 13.0826C0.175106 12.9989 0.110578 12.8996 0.0665792 12.7902C0.02258 12.6809 -3.83094e-05 12.5637 4.87065e-08 12.4453C7.74863e-05 12.2064 0.0924399 11.9773 0.256764 11.8084C0.421089 11.6395 0.643908 11.5447 0.876221 11.5448C1.10853 11.5448 1.33128 11.6398 1.4955 11.8088C1.65971 11.9778 1.75252 12.207 1.75244 12.4459ZM12.8283 12.4459C12.8283 12.6848 12.7359 12.9139 12.5716 13.0828C12.4073 13.2517 12.1844 13.3466 11.9521 13.3465C11.7198 13.3464 11.4971 13.2514 11.3328 13.0824C11.1686 12.9134 11.0764 12.6842 11.0765 12.4453C11.0766 12.2064 11.1689 11.9773 11.3332 11.8084C11.4976 11.6395 11.7204 11.5447 11.9527 11.5448C12.185 11.5448 12.4078 11.6398 12.572 11.8088C12.7362 11.9778 12.8284 12.207 12.8283 12.4459ZM23.9049 12.4459C23.9048 12.5643 23.8821 12.6814 23.8381 12.7908C23.794 12.9001 23.7294 12.9994 23.648 13.083C23.5666 13.1667 23.47 13.233 23.3637 13.2783C23.2573 13.3235 23.1434 13.3468 23.0284 13.3468C22.9133 13.3467 22.7993 13.3234 22.693 13.2781C22.5867 13.2327 22.4902 13.1663 22.4089 13.0826C22.3275 12.9989 22.263 12.8996 22.219 12.7902C22.175 12.6809 22.1524 12.5637 22.1524 12.4453C22.1525 12.2063 22.2449 11.9771 22.4093 11.8082C22.5736 11.6392 22.7965 11.5444 23.0289 11.5445C23.2613 11.5446 23.4841 11.6396 23.6484 11.8086C23.8127 11.9777 23.9049 12.2069 23.9049 12.4459ZM34.9814 12.4459C34.9813 12.5643 34.9586 12.6814 34.9145 12.7908C34.8705 12.9001 34.8059 12.9994 34.7245 13.083C34.6431 13.1667 34.5465 13.233 34.4402 13.2783C34.3339 13.3235 34.2199 13.3468 34.1049 13.3468C33.9898 13.3467 33.8758 13.3234 33.7695 13.2781C33.6633 13.2327 33.5667 13.1663 33.4853 13.0826C33.404 12.9989 33.3395 12.8996 33.2955 12.7902C33.2515 12.6809 33.2289 12.5637 33.2289 12.4453C33.229 12.2064 33.3213 11.9773 33.4857 11.8084C33.65 11.6395 33.8728 11.5447 34.1051 11.5448C34.3375 11.5448 34.5602 11.6398 34.7244 11.8088C34.8886 11.9778 34.9814 12.207 34.9814 12.4459ZM46.0579 12.4459C46.0578 12.5643 46.0351 12.6814 45.9911 12.7908C45.947 12.9001 45.8824 12.9994 45.801 13.083C45.7196 13.1667 45.623 13.233 45.5167 13.2783C45.4104 13.3235 45.2964 13.3468 45.1813 13.3468C45.0663 13.3467 44.9524 13.3234 44.8461 13.2781C44.7398 13.2327 44.6432 13.1663 44.5618 13.0826C44.4805 12.9989 44.416 12.8996 44.372 12.7902C44.328 12.6809 44.3054 12.5637 44.3054 12.4453C44.3055 12.2064 44.3978 11.9773 44.5622 11.8084C44.7265 11.6395 44.9493 11.5447 45.1816 11.5448C45.4139 11.5448 45.6367 11.6398 45.8009 11.8088C45.9652 11.9778 46.058 12.207 46.0579 12.4459ZM57.1338 12.4459C57.1338 12.6848 57.0415 12.914 56.8772 13.0829C56.713 13.2519 56.4902 13.3468 56.2579 13.3468C56.0255 13.3468 55.8027 13.2519 55.6385 13.0829C55.4742 12.914 55.3819 12.6848 55.3819 12.4459C55.3819 12.207 55.4742 11.9779 55.6385 11.8089C55.8027 11.64 56.0255 11.5451 56.2579 11.5451C56.4902 11.5451 56.713 11.64 56.8772 11.8089C57.0415 11.9779 57.1338 12.207 57.1338 12.4459ZM68.2103 12.4459C68.2103 12.6848 68.118 12.914 67.9538 13.0829C67.7895 13.2519 67.5667 13.3468 67.3344 13.3468C67.1021 13.3468 66.8793 13.2519 66.715 13.0829C66.5507 12.914 66.4584 12.6848 66.4584 12.4459C66.4584 12.207 66.5507 11.9779 66.715 11.8089C66.8793 11.64 67.1021 11.5451 67.3344 11.5451C67.5667 11.5451 67.7895 11.64 67.9538 11.8089C68.118 11.9779 68.2103 12.207 68.2103 12.4459ZM79.2874 12.4459C79.2873 12.6849 79.1949 12.9141 79.0305 13.083C78.8661 13.252 78.6432 13.3468 78.4108 13.3468C78.1784 13.3467 77.9556 13.2517 77.7913 13.0826C77.6271 12.9136 77.5348 12.6843 77.5349 12.4453C77.535 12.2063 77.6274 11.9771 77.7918 11.8082C77.9562 11.6392 78.1791 11.5444 78.4114 11.5445C78.6438 11.5446 78.8667 11.6396 79.0309 11.8086C79.1952 11.9777 79.2875 12.2069 79.2874 12.4459ZM90.3639 12.4459C90.3638 12.6849 90.2714 12.9141 90.107 13.083C89.9426 13.252 89.7197 13.3468 89.4874 13.3468C89.255 13.3467 89.0321 13.2517 88.8679 13.0826C88.7036 12.9136 88.6113 12.6843 88.6114 12.4453C88.6115 12.2064 88.7039 11.9773 88.8682 11.8084C89.0325 11.6395 89.2553 11.5447 89.4876 11.5448C89.7199 11.5448 89.9427 11.6398 90.1069 11.8088C90.2712 11.9778 90.3639 12.207 90.3639 12.4459ZM101.44 12.4459C101.44 12.5643 101.418 12.6815 101.374 12.7909C101.329 12.9002 101.265 12.9996 101.183 13.0833C101.102 13.1669 101.005 13.2333 100.899 13.2786C100.793 13.3238 100.679 13.3471 100.564 13.3471C100.448 13.347 100.334 13.3237 100.228 13.2784C100.122 13.233 100.025 13.1666 99.9439 13.0828C99.8625 12.9991 99.798 12.8997 99.7539 12.7903C99.7099 12.6809 99.6873 12.5637 99.6873 12.4453C99.6874 12.2063 99.7798 11.9771 99.9442 11.8082C100.109 11.6392 100.331 11.5444 100.564 11.5445C100.796 11.5446 101.019 11.6396 101.183 11.8086C101.348 11.9777 101.44 12.2069 101.44 12.4459ZM112.516 12.4459C112.516 12.5642 112.494 12.6814 112.45 12.7906C112.405 12.8999 112.341 12.9992 112.26 13.0828C112.178 13.1665 112.082 13.2328 111.975 13.278C111.869 13.3233 111.755 13.3465 111.64 13.3465C111.525 13.3464 111.411 13.3231 111.305 13.2778C111.199 13.2325 111.102 13.1661 111.021 13.0824C110.939 12.9987 110.875 12.8994 110.831 12.7901C110.787 12.6808 110.764 12.5636 110.764 12.4453C110.765 12.2064 110.857 11.9773 111.021 11.8084C111.185 11.6395 111.408 11.5447 111.641 11.5448C111.873 11.5448 112.096 11.6398 112.26 11.8088C112.424 11.9778 112.516 12.207 112.516 12.4459ZM123.593 12.4459C123.593 12.6849 123.5 12.9141 123.336 13.083C123.172 13.252 122.949 13.3468 122.716 13.3468C122.484 13.3467 122.261 13.2517 122.097 13.0826C121.933 12.9136 121.84 12.6843 121.84 12.4453C121.84 12.2063 121.933 11.9771 122.097 11.8082C122.262 11.6392 122.484 11.5444 122.717 11.5445C122.949 11.5446 123.172 11.6396 123.336 11.8086C123.501 11.9777 123.593 12.2069 123.593 12.4459ZM1.75244 23.9913C1.7524 24.1096 1.72972 24.2268 1.68565 24.3361C1.64158 24.4454 1.577 24.5448 1.49561 24.6284C1.41421 24.7121 1.31758 24.7784 1.21126 24.8237C1.10493 24.8689 0.991004 24.8922 0.875936 24.8921C0.760868 24.8921 0.646911 24.8688 0.540617 24.8234C0.434322 24.7781 0.337782 24.7117 0.256444 24.628C0.175106 24.5443 0.110578 24.4449 0.0665792 24.3356C0.02258 24.2262 -3.83094e-05 24.109 4.87065e-08 23.9907C4.87065e-08 23.7518 0.0922808 23.5226 0.256551 23.3537C0.42082 23.1847 0.643623 23.0898 0.875936 23.0898C1.10825 23.0898 1.33105 23.1847 1.49532 23.3537C1.65959 23.5226 1.75244 23.7524 1.75244 23.9913ZM12.8283 23.9913C12.8283 24.2302 12.7359 24.4593 12.5716 24.6282C12.4073 24.7971 12.1844 24.8919 11.9521 24.8918C11.7198 24.8918 11.4971 24.7968 11.3328 24.6278C11.1686 24.4588 11.0764 24.2296 11.0765 23.9907C11.0765 23.7518 11.1688 23.5226 11.3331 23.3537C11.4973 23.1847 11.7201 23.0898 11.9524 23.0898C12.1847 23.0898 12.4075 23.1847 12.5718 23.3537C12.7361 23.5226 12.8283 23.7524 12.8283 23.9913ZM23.9049 23.9913C23.9048 24.1096 23.8821 24.2268 23.8381 24.3361C23.794 24.4454 23.7294 24.5448 23.648 24.6284C23.5666 24.7121 23.47 24.7784 23.3637 24.8237C23.2573 24.8689 23.1434 24.8922 23.0284 24.8921C22.9133 24.8921 22.7993 24.8688 22.693 24.8234C22.5867 24.7781 22.4902 24.7117 22.4089 24.628C22.3275 24.5443 22.263 24.4449 22.219 24.3356C22.175 24.2262 22.1524 24.109 22.1524 23.9907C22.1524 23.7517 22.2447 23.5225 22.409 23.3535C22.5734 23.1845 22.7962 23.0895 23.0286 23.0895C23.261 23.0895 23.4839 23.1845 23.6482 23.3535C23.8126 23.5225 23.9049 23.7523 23.9049 23.9913ZM34.9814 23.9913C34.9813 24.1096 34.9586 24.2268 34.9145 24.3361C34.8705 24.4454 34.8059 24.5448 34.7245 24.6284C34.6431 24.7121 34.5465 24.7784 34.4402 24.8237C34.3339 24.8689 34.2199 24.8922 34.1049 24.8921C33.9898 24.8921 33.8758 24.8688 33.7695 24.8234C33.6633 24.7781 33.5667 24.7117 33.4853 24.628C33.404 24.5443 33.3395 24.4449 33.2955 24.3356C33.2515 24.2262 33.2289 24.109 33.2289 23.9907C33.2289 23.7518 33.3212 23.5226 33.4855 23.3537C33.6497 23.1847 33.8726 23.0898 34.1049 23.0898C34.3372 23.0898 34.5599 23.1847 34.7242 23.3537C34.8885 23.5226 34.9814 23.7524 34.9814 23.9913ZM46.0579 23.9913C46.0578 24.1096 46.0351 24.2268 45.9911 24.3361C45.947 24.4454 45.8824 24.5448 45.801 24.6284C45.7196 24.7121 45.623 24.7784 45.5167 24.8237C45.4104 24.8689 45.2964 24.8922 45.1813 24.8921C45.0663 24.8921 44.9524 24.8688 44.8461 24.8234C44.7398 24.7781 44.6432 24.7117 44.5618 24.628C44.4805 24.5443 44.416 24.4449 44.372 24.3356C44.328 24.2262 44.3054 24.109 44.3054 23.9907C44.3054 23.7518 44.3977 23.5226 44.562 23.3537C44.7262 23.1847 44.949 23.0898 45.1813 23.0898C45.4137 23.0898 45.6365 23.1847 45.8007 23.3537C45.965 23.5226 46.0579 23.7524 46.0579 23.9913ZM57.1338 23.9913C57.1338 24.2302 57.0415 24.4593 56.8772 24.6283C56.713 24.7972 56.4902 24.8921 56.2579 24.8921C56.0255 24.8921 55.8027 24.7972 55.6385 24.6283C55.4742 24.4593 55.3819 24.2302 55.3819 23.9913C55.3819 23.7524 55.4742 23.5232 55.6385 23.3543C55.8027 23.1854 56.0255 23.0904 56.2579 23.0904C56.4902 23.0904 56.713 23.1854 56.8772 23.3543C57.0415 23.5232 57.1338 23.7524 57.1338 23.9913ZM68.2103 23.9913C68.2103 24.2302 68.118 24.4593 67.9538 24.6283C67.7895 24.7972 67.5667 24.8921 67.3344 24.8921C67.1021 24.8921 66.8793 24.7972 66.715 24.6283C66.5507 24.4593 66.4584 24.2302 66.4584 23.9913C66.4584 23.7524 66.5507 23.5232 66.715 23.3543C66.8793 23.1854 67.1021 23.0904 67.3344 23.0904C67.5667 23.0904 67.7895 23.1854 67.9538 23.3543C68.118 23.5232 68.2103 23.7524 68.2103 23.9913ZM79.2874 23.9913C79.2873 24.2303 79.1949 24.4595 79.0305 24.6284C78.8661 24.7974 78.6432 24.8922 78.4108 24.8921C78.1784 24.8921 77.9556 24.7971 77.7913 24.628C77.6271 24.4589 77.5348 24.2297 77.5349 23.9907C77.5349 23.7517 77.6272 23.5225 77.7916 23.3535C77.9559 23.1845 78.1788 23.0895 78.4112 23.0895C78.6436 23.0895 78.8664 23.1845 79.0307 23.3535C79.195 23.5225 79.2874 23.7523 79.2874 23.9913ZM90.3639 23.9913C90.3638 24.2303 90.2714 24.4595 90.107 24.6284C89.9426 24.7974 89.7197 24.8922 89.4874 24.8921C89.255 24.8921 89.0321 24.7971 88.8679 24.628C88.7036 24.4589 88.6113 24.2297 88.6114 23.9907C88.6114 23.7518 88.7037 23.5226 88.868 23.3537C89.0322 23.1847 89.255 23.0898 89.4874 23.0898C89.7197 23.0898 89.9425 23.1847 90.1067 23.3537C90.271 23.5226 90.3639 23.7524 90.3639 23.9913ZM101.44 23.9913C101.44 24.2304 101.348 24.4596 101.183 24.6286C101.019 24.7976 100.796 24.8925 100.564 24.8925C100.331 24.8924 100.108 24.7973 99.9439 24.6282C99.7795 24.4591 99.6872 24.2298 99.6873 23.9907C99.6873 23.7517 99.7797 23.5225 99.944 23.3535C100.108 23.1845 100.331 23.0895 100.564 23.0895C100.796 23.0895 101.019 23.1845 101.183 23.3535C101.347 23.5225 101.44 23.7523 101.44 23.9913ZM112.516 23.9913C112.516 24.1096 112.494 24.2267 112.45 24.336C112.405 24.4453 112.341 24.5446 112.26 24.6282C112.178 24.7118 112.082 24.7782 111.975 24.8234C111.869 24.8686 111.755 24.8919 111.64 24.8918C111.525 24.8918 111.411 24.8685 111.305 24.8232C111.199 24.7778 111.102 24.7115 111.021 24.6278C110.939 24.5441 110.875 24.4448 110.831 24.3355C110.787 24.2262 110.764 24.109 110.764 23.9907C110.764 23.7518 110.857 23.5226 111.021 23.3537C111.185 23.1847 111.408 23.0898 111.64 23.0898C111.873 23.0898 112.095 23.1847 112.26 23.3537C112.424 23.5226 112.516 23.7524 112.516 23.9913ZM123.593 23.9913C123.593 24.2303 123.5 24.4595 123.336 24.6284C123.172 24.7974 122.949 24.8922 122.716 24.8921C122.484 24.8921 122.261 24.7971 122.097 24.628C121.933 24.4589 121.84 24.2297 121.84 23.9907C121.84 23.7517 121.933 23.5225 122.097 23.3535C122.261 23.1845 122.484 23.0895 122.717 23.0895C122.949 23.0895 123.172 23.1845 123.336 23.3535C123.5 23.5225 123.593 23.7523 123.593 23.9913ZM1.75244 35.5355C1.75244 35.7745 1.66014 36.0037 1.49582 36.1727C1.3315 36.3417 1.10861 36.4366 0.876221 36.4366C0.643831 36.4366 0.420946 36.3417 0.256622 36.1727C0.0922973 36.0037 4.87065e-08 35.7745 4.87065e-08 35.5355C4.87065e-08 35.2965 0.0922808 35.0674 0.256551 34.8985C0.42082 34.7295 0.643623 34.6346 0.875936 34.6346C1.10825 34.6346 1.33105 34.7295 1.49532 34.8985C1.65959 35.0674 1.75244 35.2965 1.75244 35.5355ZM12.8283 35.5355C12.8283 35.7744 12.7361 36.0035 12.5718 36.1725C12.4075 36.3414 12.1847 36.4363 11.9524 36.4363C11.7201 36.4363 11.4973 36.3414 11.3331 36.1725C11.1688 36.0035 11.0765 35.7744 11.0765 35.5355C11.0765 35.2965 11.1688 35.0674 11.3331 34.8985C11.4973 34.7295 11.7201 34.6346 11.9524 34.6346C12.1847 34.6346 12.4075 34.7295 12.5718 34.8985C12.7361 35.0674 12.8283 35.2965 12.8283 35.5355ZM23.9049 35.5355C23.9049 35.7745 23.8126 36.0037 23.6482 36.1727C23.4839 36.3417 23.261 36.4366 23.0286 36.4366C22.7962 36.4366 22.5734 36.3417 22.409 36.1727C22.2447 36.0037 22.1524 35.7745 22.1524 35.5355C22.1524 35.2965 22.2447 35.0673 22.409 34.8983C22.5734 34.7293 22.7962 34.6343 23.0286 34.6343C23.261 34.6343 23.4839 34.7293 23.6482 34.8983C23.8126 35.0673 23.9049 35.2965 23.9049 35.5355ZM34.9814 35.5355C34.9814 35.7745 34.889 36.0037 34.7247 36.1727C34.5604 36.3417 34.3375 36.4366 34.1051 36.4366C33.8728 36.4366 33.6499 36.3417 33.4855 36.1727C33.3212 36.0037 33.2289 35.7745 33.2289 35.5355C33.2289 35.2965 33.3212 35.0674 33.4855 34.8985C33.6497 34.7295 33.8726 34.6346 34.1049 34.6346C34.3372 34.6346 34.5599 34.7295 34.7242 34.8985C34.8885 35.0674 34.9814 35.2965 34.9814 35.5355ZM46.0579 35.5355C46.0579 35.7745 45.9655 36.0037 45.8012 36.1727C45.6369 36.3417 45.414 36.4366 45.1816 36.4366C44.9492 36.4366 44.7264 36.3417 44.5621 36.1727C44.3977 36.0037 44.3054 35.7745 44.3054 35.5355C44.3054 35.2965 44.3977 35.0674 44.562 34.8985C44.7262 34.7295 44.949 34.6346 45.1813 34.6346C45.4137 34.6346 45.6365 34.7295 45.8007 34.8985C45.965 35.0674 46.0579 35.2965 46.0579 35.5355ZM57.1338 35.5355C57.1338 35.7744 57.0415 36.0035 56.8772 36.1725C56.713 36.3414 56.4902 36.4363 56.2579 36.4363C56.0255 36.4363 55.8027 36.3414 55.6385 36.1725C55.4742 36.0035 55.3819 35.7744 55.3819 35.5355C55.3819 35.2965 55.4742 35.0674 55.6385 34.8985C55.8027 34.7295 56.0255 34.6346 56.2579 34.6346C56.4902 34.6346 56.713 34.7295 56.8772 34.8985C57.0415 35.0674 57.1338 35.2965 57.1338 35.5355ZM68.2103 35.5355C68.2103 35.7744 68.118 36.0035 67.9538 36.1725C67.7895 36.3414 67.5667 36.4363 67.3344 36.4363C67.1021 36.4363 66.8793 36.3414 66.715 36.1725C66.5507 36.0035 66.4584 35.7744 66.4584 35.5355C66.4584 35.2965 66.5507 35.0674 66.715 34.8985C66.8793 34.7295 67.1021 34.6346 67.3344 34.6346C67.5667 34.6346 67.7895 34.7295 67.9538 34.8985C68.118 35.0674 68.2103 35.2965 68.2103 35.5355ZM79.2874 35.5355C79.2874 35.7745 79.195 36.0037 79.0307 36.1727C78.8664 36.3417 78.6436 36.4366 78.4112 36.4366C78.1788 36.4366 77.9559 36.3417 77.7916 36.1727C77.6272 36.0037 77.5349 35.7745 77.5349 35.5355C77.5349 35.2965 77.6272 35.0673 77.7916 34.8983C77.9559 34.7293 78.1788 34.6343 78.4112 34.6343C78.6436 34.6343 78.8664 34.7293 79.0307 34.8983C79.195 35.0673 79.2874 35.2965 79.2874 35.5355ZM90.3639 35.5355C90.3639 35.7745 90.2716 36.0037 90.1072 36.1727C89.9429 36.3417 89.72 36.4366 89.4876 36.4366C89.2552 36.4366 89.0324 36.3417 88.8681 36.1727C88.7037 36.0037 88.6114 35.7745 88.6114 35.5355C88.6114 35.2965 88.7037 35.0674 88.868 34.8985C89.0322 34.7295 89.255 34.6346 89.4874 34.6346C89.7197 34.6346 89.9425 34.7295 90.1067 34.8985C90.271 35.0674 90.3639 35.2965 90.3639 35.5355ZM101.44 35.5355C101.44 35.7745 101.348 36.0038 101.184 36.1729C101.019 36.3419 100.796 36.4369 100.564 36.4369C100.331 36.4369 100.108 36.3419 99.944 36.1729C99.7797 36.0038 99.6873 35.7745 99.6873 35.5355C99.6873 35.2965 99.7797 35.0673 99.944 34.8983C100.108 34.7293 100.331 34.6343 100.564 34.6343C100.796 34.6343 101.019 34.7293 101.183 34.8983C101.347 35.0673 101.44 35.2965 101.44 35.5355ZM112.516 35.5355C112.516 35.7744 112.424 36.0035 112.26 36.1725C112.095 36.3414 111.873 36.4363 111.64 36.4363C111.408 36.4363 111.185 36.3414 111.021 36.1725C110.857 36.0035 110.764 35.7744 110.764 35.5355C110.764 35.2965 110.857 35.0674 111.021 34.8985C111.185 34.7295 111.408 34.6346 111.64 34.6346C111.873 34.6346 112.095 34.7295 112.26 34.8985C112.424 35.0674 112.516 35.2965 112.516 35.5355ZM123.593 35.5355C123.593 35.7745 123.5 36.0037 123.336 36.1727C123.172 36.3417 122.949 36.4366 122.717 36.4366C122.484 36.4366 122.261 36.3417 122.097 36.1727C121.933 36.0037 121.84 35.7745 121.84 35.5355C121.84 35.2965 121.933 35.0673 122.097 34.8983C122.261 34.7293 122.484 34.6343 122.717 34.6343C122.949 34.6343 123.172 34.7293 123.336 34.8983C123.5 35.0673 123.593 35.2965 123.593 35.5355ZM1.75244 47.0802C1.75244 47.3191 1.66016 47.5483 1.49589 47.7172C1.33162 47.8862 1.10882 47.9811 0.876506 47.9811C0.644194 47.9811 0.421391 47.8862 0.257121 47.7172C0.092851 47.5483 0.000570319 47.3191 0.000570319 47.0802C0.000570319 46.8413 0.092851 46.6122 0.257121 46.4432C0.421391 46.2743 0.644194 46.1794 0.876506 46.1794C1.10882 46.1794 1.33162 46.2743 1.49589 46.4432C1.66016 46.6122 1.75244 46.8413 1.75244 47.0802ZM12.8283 47.0802C12.8283 47.3191 12.7361 47.5483 12.5718 47.7172C12.4075 47.8862 12.1847 47.9811 11.9524 47.9811C11.7201 47.9811 11.4973 47.8862 11.3331 47.7172C11.1688 47.5483 11.0765 47.3191 11.0765 47.0802C11.0765 46.8413 11.1688 46.6122 11.3331 46.4432C11.4973 46.2743 11.7201 46.1794 11.9524 46.1794C12.1847 46.1794 12.4075 46.2743 12.5718 46.4432C12.7361 46.6122 12.8283 46.8413 12.8283 47.0802ZM23.9049 47.0802C23.9049 47.3191 23.8126 47.5483 23.6483 47.7172C23.484 47.8862 23.2612 47.9811 23.0289 47.9811C22.7966 47.9811 22.5738 47.8862 22.4095 47.7172C22.2453 47.5483 22.153 47.3191 22.153 47.0802C22.153 46.8413 22.2453 46.6122 22.4095 46.4432C22.5738 46.2743 22.7966 46.1794 23.0289 46.1794C23.2612 46.1794 23.484 46.2743 23.6483 46.4432C23.8126 46.6122 23.9049 46.8413 23.9049 47.0802ZM34.9814 47.0802C34.9814 47.3191 34.8891 47.5483 34.7248 47.7172C34.5605 47.8862 34.3377 47.9811 34.1054 47.9811C33.8731 47.9811 33.6503 47.8862 33.486 47.7172C33.3218 47.5483 33.2295 47.3191 33.2295 47.0802C33.2295 46.8413 33.3218 46.6122 33.486 46.4432C33.6503 46.2743 33.8731 46.1794 34.1054 46.1794C34.3377 46.1794 34.5605 46.2743 34.7248 46.4432C34.8891 46.6122 34.9814 46.8413 34.9814 47.0802ZM46.0579 47.0802C46.0579 47.3191 45.9656 47.5483 45.8013 47.7172C45.637 47.8862 45.4143 47.9811 45.1819 47.9811C44.9496 47.9811 44.7268 47.8862 44.5626 47.7172C44.3983 47.5483 44.306 47.3191 44.306 47.0802C44.306 46.8413 44.3983 46.6122 44.5626 46.4432C44.7268 46.2743 44.9496 46.1794 45.1819 46.1794C45.4143 46.1794 45.637 46.2743 45.8013 46.4432C45.9656 46.6122 46.0579 46.8413 46.0579 47.0802ZM57.1338 47.0802C57.1381 47.2012 57.1187 47.3219 57.0767 47.435C57.0347 47.5481 56.9709 47.6513 56.8892 47.7385C56.8076 47.8257 56.7096 47.895 56.6013 47.9424C56.493 47.9898 56.3765 48.0142 56.2587 48.0143C56.141 48.0143 56.0245 47.9899 55.9161 47.9426C55.8078 47.8953 55.7098 47.826 55.6281 47.7389C55.5463 47.6518 55.4825 47.5486 55.4404 47.4355C55.3983 47.3224 55.3788 47.2018 55.3831 47.0808C55.3913 46.8478 55.4871 46.627 55.6503 46.4651C55.8135 46.3032 56.0314 46.2126 56.2581 46.2126C56.4849 46.2125 56.7029 46.3029 56.8662 46.4647C57.0295 46.6265 57.1254 46.8472 57.1338 47.0802ZM68.2103 47.0802C68.2146 47.2012 68.1952 47.3219 68.1532 47.435C68.1112 47.5481 68.0474 47.6513 67.9657 47.7385C67.884 47.8257 67.7861 47.895 67.6778 47.9424C67.5695 47.9898 67.453 48.0142 67.3353 48.0143C67.2175 48.0143 67.101 47.9899 66.9926 47.9426C66.8843 47.8953 66.7863 47.826 66.7046 47.7389C66.6228 47.6518 66.559 47.5486 66.5169 47.4355C66.4748 47.3224 66.4553 47.2018 66.4596 47.0808C66.4678 46.8478 66.5636 46.627 66.7268 46.4651C66.89 46.3032 67.1079 46.2126 67.3346 46.2126C67.5614 46.2125 67.7794 46.3029 67.9427 46.4647C68.106 46.6265 68.2019 46.8472 68.2103 47.0802ZM79.2874 47.0802C79.2874 47.3191 79.1951 47.5483 79.0308 47.7172C78.8666 47.8862 78.6438 47.9811 78.4114 47.9811C78.1791 47.9811 77.9563 47.8862 77.7921 47.7172C77.6278 47.5483 77.5355 47.3191 77.5355 47.0802C77.5355 46.8413 77.6278 46.6122 77.7921 46.4432C77.9563 46.2743 78.1791 46.1794 78.4114 46.1794C78.6438 46.1794 78.8666 46.2743 79.0308 46.4432C79.1951 46.6122 79.2874 46.8413 79.2874 47.0802ZM90.3639 47.0802C90.3639 47.3191 90.2716 47.5483 90.1073 47.7172C89.943 47.8862 89.7202 47.9811 89.4879 47.9811C89.2556 47.9811 89.0328 47.8862 88.8686 47.7172C88.7043 47.5483 88.612 47.3191 88.612 47.0802C88.612 46.8413 88.7043 46.6122 88.8686 46.4432C89.0328 46.2743 89.2556 46.1794 89.4879 46.1794C89.7202 46.1794 89.943 46.2743 90.1073 46.4432C90.2716 46.6122 90.3639 46.8413 90.3639 47.0802ZM101.44 47.0802C101.44 47.3191 101.348 47.5483 101.184 47.7172C101.02 47.8862 100.797 47.9811 100.564 47.9811C100.332 47.9811 100.109 47.8862 99.945 47.7172C99.7808 47.5483 99.6885 47.3191 99.6885 47.0802C99.6885 46.8413 99.7808 46.6122 99.945 46.4432C100.109 46.2743 100.332 46.1794 100.564 46.1794C100.797 46.1794 101.02 46.2743 101.184 46.4432C101.348 46.6122 101.44 46.8413 101.44 47.0802ZM112.516 47.0802C112.516 47.3191 112.424 47.5483 112.26 47.7172C112.095 47.8862 111.873 47.9811 111.64 47.9811C111.408 47.9811 111.185 47.8862 111.021 47.7172C110.857 47.5483 110.764 47.3191 110.764 47.0802C110.764 46.8413 110.857 46.6122 111.021 46.4432C111.185 46.2743 111.408 46.1794 111.64 46.1794C111.873 46.1794 112.095 46.2743 112.26 46.4432C112.424 46.6122 112.516 46.8413 112.516 47.0802ZM123.593 47.0802C123.593 47.3191 123.501 47.5483 123.336 47.7172C123.172 47.8862 122.949 47.9811 122.717 47.9811C122.485 47.9811 122.262 47.8862 122.097 47.7172C121.933 47.5483 121.841 47.3191 121.841 47.0802C121.841 46.8413 121.933 46.6122 122.097 46.4432C122.262 46.2743 122.485 46.1794 122.717 46.1794C122.949 46.1794 123.172 46.2743 123.336 46.4432C123.501 46.6122 123.593 46.8413 123.593 47.0802ZM1.75244 58.6256C1.7524 58.7439 1.72972 58.8611 1.68565 58.9704C1.64158 59.0797 1.577 59.1791 1.49561 59.2627C1.41421 59.3464 1.31758 59.4127 1.21126 59.458C1.10493 59.5032 0.991004 59.5265 0.875936 59.5264C0.760868 59.5264 0.646911 59.5031 0.540617 59.4578C0.434322 59.4124 0.337782 59.346 0.256444 59.2623C0.175106 59.1786 0.110578 59.0792 0.0665792 58.9699C0.02258 58.8605 -3.83094e-05 58.7433 4.87065e-08 58.625C4.87065e-08 58.3861 0.0922808 58.1569 0.256551 57.988C0.42082 57.8191 0.643623 57.7242 0.875936 57.7242C1.10825 57.7242 1.33105 57.8191 1.49532 57.988C1.65959 58.1569 1.75244 58.3867 1.75244 58.6256ZM12.8283 58.6256C12.8283 58.8645 12.7359 59.0936 12.5716 59.2625C12.4073 59.4314 12.1844 59.5262 11.9521 59.5262C11.7198 59.5261 11.4971 59.4311 11.3328 59.2621C11.1686 59.0931 11.0764 58.8639 11.0765 58.625C11.0765 58.3861 11.1688 58.1569 11.3331 57.988C11.4973 57.8191 11.7201 57.7242 11.9524 57.7242C12.1847 57.7242 12.4075 57.8191 12.5718 57.988C12.7361 58.1569 12.8283 58.3867 12.8283 58.6256ZM23.9049 58.6256C23.9048 58.7439 23.8821 58.8611 23.8381 58.9704C23.794 59.0797 23.7294 59.1791 23.648 59.2627C23.5666 59.3464 23.47 59.4127 23.3637 59.458C23.2573 59.5032 23.1434 59.5265 23.0284 59.5264C22.9133 59.5264 22.7993 59.5031 22.693 59.4578C22.5867 59.4124 22.4902 59.346 22.4089 59.2623C22.3275 59.1786 22.263 59.0792 22.219 58.9699C22.175 58.8605 22.1524 58.7433 22.1524 58.625C22.1524 58.386 22.2447 58.1568 22.409 57.9878C22.5734 57.8188 22.7962 57.7239 23.0286 57.7239C23.261 57.7239 23.4839 57.8188 23.6482 57.9878C23.8126 58.1568 23.9049 58.3866 23.9049 58.6256ZM34.9814 58.6256C34.9813 58.7439 34.9586 58.8611 34.9145 58.9704C34.8705 59.0797 34.8059 59.1791 34.7245 59.2627C34.6431 59.3464 34.5465 59.4127 34.4402 59.458C34.3339 59.5032 34.2199 59.5265 34.1049 59.5264C33.9898 59.5264 33.8758 59.5031 33.7695 59.4578C33.6633 59.4124 33.5667 59.346 33.4853 59.2623C33.404 59.1786 33.3395 59.0792 33.2955 58.9699C33.2515 58.8605 33.2289 58.7433 33.2289 58.625C33.2289 58.3861 33.3212 58.1569 33.4855 57.988C33.6497 57.8191 33.8726 57.7242 34.1049 57.7242C34.3372 57.7242 34.5599 57.8191 34.7242 57.988C34.8885 58.1569 34.9814 58.3867 34.9814 58.6256ZM46.0579 58.6256C46.0578 58.7439 46.0351 58.8611 45.9911 58.9704C45.947 59.0797 45.8824 59.1791 45.801 59.2627C45.7196 59.3464 45.623 59.4127 45.5167 59.458C45.4104 59.5032 45.2964 59.5265 45.1813 59.5264C45.0663 59.5264 44.9524 59.5031 44.8461 59.4578C44.7398 59.4124 44.6432 59.346 44.5618 59.2623C44.4805 59.1786 44.416 59.0792 44.372 58.9699C44.328 58.8605 44.3054 58.7433 44.3054 58.625C44.3054 58.3861 44.3977 58.1569 44.562 57.988C44.7262 57.8191 44.949 57.7242 45.1813 57.7242C45.4137 57.7242 45.6365 57.8191 45.8007 57.988C45.965 58.1569 46.0579 58.3867 46.0579 58.6256ZM57.1338 58.6256C57.1338 58.8645 57.0415 59.0937 56.8772 59.2626C56.713 59.4315 56.4902 59.5264 56.2579 59.5264C56.0255 59.5264 55.8027 59.4315 55.6385 59.2626C55.4742 59.0937 55.3819 58.8645 55.3819 58.6256C55.3819 58.3867 55.4742 58.1575 55.6385 57.9886C55.8027 57.8196 56.0255 57.7247 56.2579 57.7247C56.4902 57.7247 56.713 57.8196 56.8772 57.9886C57.0415 58.1575 57.1338 58.3867 57.1338 58.6256ZM68.2103 58.6256C68.2103 58.8645 68.118 59.0937 67.9538 59.2626C67.7895 59.4315 67.5667 59.5264 67.3344 59.5264C67.1021 59.5264 66.8793 59.4315 66.715 59.2626C66.5507 59.0937 66.4584 58.8645 66.4584 58.6256C66.4584 58.3867 66.5507 58.1575 66.715 57.9886C66.8793 57.8196 67.1021 57.7247 67.3344 57.7247C67.5667 57.7247 67.7895 57.8196 67.9538 57.9886C68.118 58.1575 68.2103 58.3867 68.2103 58.6256ZM79.2874 58.6256C79.2873 58.8646 79.1949 59.0938 79.0305 59.2627C78.8661 59.4317 78.6432 59.5265 78.4108 59.5264C78.1784 59.5264 77.9556 59.4314 77.7913 59.2623C77.6271 59.0933 77.5348 58.864 77.5349 58.625C77.5349 58.386 77.6272 58.1568 77.7916 57.9878C77.9559 57.8188 78.1788 57.7239 78.4112 57.7239C78.6436 57.7239 78.8664 57.8188 79.0307 57.9878C79.195 58.1568 79.2874 58.3866 79.2874 58.6256ZM90.3639 58.6256C90.3638 58.8646 90.2714 59.0938 90.107 59.2627C89.9426 59.4317 89.7197 59.5265 89.4874 59.5264C89.255 59.5264 89.0321 59.4314 88.8679 59.2623C88.7036 59.0933 88.6113 58.864 88.6114 58.625C88.6114 58.3861 88.7037 58.1569 88.868 57.988C89.0322 57.8191 89.255 57.7242 89.4874 57.7242C89.7197 57.7242 89.9425 57.8191 90.1067 57.988C90.271 58.1569 90.3639 58.3867 90.3639 58.6256ZM101.44 58.6256C101.44 58.8647 101.348 59.0939 101.183 59.2629C101.019 59.4319 100.796 59.5268 100.564 59.5267C100.331 59.5267 100.108 59.4316 99.9439 59.2625C99.7795 59.0934 99.6872 58.8641 99.6873 58.625C99.6873 58.386 99.7797 58.1568 99.944 57.9878C100.108 57.8188 100.331 57.7239 100.564 57.7239C100.796 57.7239 101.019 57.8188 101.183 57.9878C101.347 58.1568 101.44 58.3866 101.44 58.6256ZM112.516 58.6256C112.516 58.7439 112.494 58.861 112.45 58.9703C112.405 59.0796 112.341 59.1789 112.26 59.2625C112.178 59.3462 112.082 59.4124 111.975 59.4577C111.869 59.5029 111.755 59.5262 111.64 59.5262C111.525 59.5261 111.411 59.5028 111.305 59.4575C111.199 59.4122 111.102 59.3458 111.021 59.2621C110.939 59.1784 110.875 59.0791 110.831 58.9698C110.787 58.8604 110.764 58.7433 110.764 58.625C110.764 58.3861 110.857 58.1569 111.021 57.988C111.185 57.8191 111.408 57.7242 111.64 57.7242C111.873 57.7242 112.095 57.8191 112.26 57.988C112.424 58.1569 112.516 58.3867 112.516 58.6256ZM123.593 58.6256C123.593 58.8646 123.5 59.0938 123.336 59.2627C123.172 59.4317 122.949 59.5265 122.716 59.5264C122.484 59.5264 122.261 59.4314 122.097 59.2623C121.933 59.0933 121.84 58.864 121.84 58.625C121.84 58.386 121.933 58.1568 122.097 57.9878C122.261 57.8188 122.484 57.7239 122.717 57.7239C122.949 57.7239 123.172 57.8188 123.336 57.9878C123.5 58.1568 123.593 58.3866 123.593 58.6256ZM1.75244 70.1704C1.75244 70.4093 1.66016 70.6384 1.49589 70.8074C1.33162 70.9763 1.10882 71.0712 0.876506 71.0712C0.644194 71.0712 0.421391 70.9763 0.257121 70.8074C0.092851 70.6384 0.000570319 70.4093 0.000570319 70.1704C0.000570319 69.9315 0.092851 69.7023 0.257121 69.5334C0.421391 69.3644 0.644194 69.2695 0.876506 69.2695C1.10882 69.2695 1.33162 69.3644 1.49589 69.5334C1.66016 69.7023 1.75244 69.9315 1.75244 70.1704ZM12.8283 70.1704C12.8283 70.4093 12.7361 70.6384 12.5718 70.8074C12.4075 70.9763 12.1847 71.0712 11.9524 71.0712C11.7201 71.0712 11.4973 70.9763 11.3331 70.8074C11.1688 70.6384 11.0765 70.4093 11.0765 70.1704C11.0765 69.9315 11.1688 69.7023 11.3331 69.5334C11.4973 69.3644 11.7201 69.2695 11.9524 69.2695C12.1847 69.2695 12.4075 69.3644 12.5718 69.5334C12.7361 69.7023 12.8283 69.9315 12.8283 70.1704ZM23.9049 70.1704C23.9049 70.4093 23.8126 70.6384 23.6483 70.8074C23.484 70.9763 23.2612 71.0712 23.0289 71.0712C22.7966 71.0712 22.5738 70.9763 22.4095 70.8074C22.2453 70.6384 22.153 70.4093 22.153 70.1704C22.153 69.9315 22.2453 69.7023 22.4095 69.5334C22.5738 69.3644 22.7966 69.2695 23.0289 69.2695C23.2612 69.2695 23.484 69.3644 23.6483 69.5334C23.8126 69.7023 23.9049 69.9315 23.9049 70.1704ZM34.9814 70.1704C34.9814 70.4093 34.8891 70.6384 34.7248 70.8074C34.5605 70.9763 34.3377 71.0712 34.1054 71.0712C33.8731 71.0712 33.6503 70.9763 33.486 70.8074C33.3218 70.6384 33.2295 70.4093 33.2295 70.1704C33.2295 69.9315 33.3218 69.7023 33.486 69.5334C33.6503 69.3644 33.8731 69.2695 34.1054 69.2695C34.3377 69.2695 34.5605 69.3644 34.7248 69.5334C34.8891 69.7023 34.9814 69.9315 34.9814 70.1704ZM46.0579 70.1704C46.0579 70.4093 45.9656 70.6384 45.8013 70.8074C45.637 70.9763 45.4143 71.0712 45.1819 71.0712C44.9496 71.0712 44.7268 70.9763 44.5626 70.8074C44.3983 70.6384 44.306 70.4093 44.306 70.1704C44.306 69.9315 44.3983 69.7023 44.5626 69.5334C44.7268 69.3644 44.9496 69.2695 45.1819 69.2695C45.4143 69.2695 45.637 69.3644 45.8013 69.5334C45.9656 69.7023 46.0579 69.9315 46.0579 70.1704ZM57.1338 70.1704C57.1381 70.2914 57.1186 70.412 57.0766 70.5251C57.0345 70.6382 56.9707 70.7414 56.889 70.8285C56.8073 70.9157 56.7094 70.985 56.601 71.0323C56.4927 71.0797 56.3761 71.1041 56.2584 71.1041C56.1407 71.1041 56.0242 71.0797 55.9159 71.0323C55.8075 70.985 55.7096 70.9157 55.6278 70.8285C55.5461 70.7414 55.4824 70.6382 55.4403 70.5251C55.3982 70.412 55.3788 70.2914 55.3831 70.1704C55.3914 69.9373 55.4872 69.7166 55.6505 69.5547C55.8137 69.3929 56.0316 69.3024 56.2584 69.3024C56.4852 69.3024 56.7031 69.3929 56.8664 69.5547C57.0297 69.7166 57.1255 69.9373 57.1338 70.1704ZM68.2103 70.1704C68.2146 70.2914 68.1951 70.412 68.1531 70.5251C68.111 70.6382 68.0472 70.7414 67.9655 70.8285C67.8838 70.9157 67.7859 70.985 67.6775 71.0323C67.5692 71.0797 67.4527 71.1041 67.3349 71.1041C67.2172 71.1041 67.1007 71.0797 66.9923 71.0323C66.884 70.985 66.7861 70.9157 66.7044 70.8285C66.6226 70.7414 66.5589 70.6382 66.5168 70.5251C66.4748 70.412 66.4553 70.2914 66.4596 70.1704C66.4678 69.9373 66.5637 69.7166 66.727 69.5547C66.8902 69.3929 67.1082 69.3024 67.3349 69.3024C67.5617 69.3024 67.7797 69.3929 67.9429 69.5547C68.1062 69.7166 68.202 69.9373 68.2103 70.1704ZM79.2874 70.1704C79.2874 70.4093 79.1951 70.6384 79.0308 70.8074C78.8666 70.9763 78.6438 71.0712 78.4114 71.0712C78.1791 71.0712 77.9563 70.9763 77.7921 70.8074C77.6278 70.6384 77.5355 70.4093 77.5355 70.1704C77.5355 69.9315 77.6278 69.7023 77.7921 69.5334C77.9563 69.3644 78.1791 69.2695 78.4114 69.2695C78.6438 69.2695 78.8666 69.3644 79.0308 69.5334C79.1951 69.7023 79.2874 69.9315 79.2874 70.1704ZM90.3639 70.1704C90.3639 70.4093 90.2716 70.6384 90.1073 70.8074C89.943 70.9763 89.7202 71.0712 89.4879 71.0712C89.2556 71.0712 89.0328 70.9763 88.8686 70.8074C88.7043 70.6384 88.612 70.4093 88.612 70.1704C88.612 69.9315 88.7043 69.7023 88.8686 69.5334C89.0328 69.3644 89.2556 69.2695 89.4879 69.2695C89.7202 69.2695 89.943 69.3644 90.1073 69.5334C90.2716 69.7023 90.3639 69.9315 90.3639 70.1704ZM101.44 70.1704C101.44 70.4093 101.348 70.6384 101.184 70.8074C101.02 70.9763 100.797 71.0712 100.564 71.0712C100.332 71.0712 100.109 70.9763 99.945 70.8074C99.7808 70.6384 99.6885 70.4093 99.6885 70.1704C99.6885 69.9315 99.7808 69.7023 99.945 69.5334C100.109 69.3644 100.332 69.2695 100.564 69.2695C100.797 69.2695 101.02 69.3644 101.184 69.5334C101.348 69.7023 101.44 69.9315 101.44 70.1704ZM112.516 70.1704C112.516 70.4093 112.424 70.6384 112.26 70.8074C112.095 70.9763 111.873 71.0712 111.64 71.0712C111.408 71.0712 111.185 70.9763 111.021 70.8074C110.857 70.6384 110.764 70.4093 110.764 70.1704C110.764 69.9315 110.857 69.7023 111.021 69.5334C111.185 69.3644 111.408 69.2695 111.64 69.2695C111.873 69.2695 112.095 69.3644 112.26 69.5334C112.424 69.7023 112.516 69.9315 112.516 70.1704ZM123.593 70.1704C123.593 70.4093 123.501 70.6384 123.336 70.8074C123.172 70.9763 122.949 71.0712 122.717 71.0712C122.485 71.0712 122.262 70.9763 122.097 70.8074C121.933 70.6384 121.841 70.4093 121.841 70.1704C121.841 69.9315 121.933 69.7023 122.097 69.5334C122.262 69.3644 122.485 69.2695 122.717 69.2695C122.949 69.2695 123.172 69.3644 123.336 69.5334C123.501 69.7023 123.593 69.9315 123.593 70.1704ZM1.75244 81.7151C1.7524 81.8335 1.72972 81.9507 1.68565 82.06C1.64158 82.1693 1.577 82.2686 1.49561 82.3523C1.41421 82.4359 1.31758 82.5022 1.21126 82.5475C1.10493 82.5928 0.991004 82.616 0.875936 82.616C0.760868 82.6159 0.646911 82.5926 0.540617 82.5473C0.434322 82.502 0.337782 82.4355 0.256444 82.3518C0.175106 82.2681 0.110578 82.1688 0.0665792 82.0594C0.02258 81.9501 -3.83094e-05 81.8329 4.87065e-08 81.7145C7.74863e-05 81.4756 0.0924399 81.2465 0.256764 81.0776C0.421089 80.9087 0.643908 80.8139 0.876221 80.814C1.10853 80.8141 1.33128 80.909 1.4955 81.078C1.65971 81.247 1.75252 81.4762 1.75244 81.7151ZM12.8283 81.7151C12.8283 81.954 12.7359 82.1832 12.5716 82.3521C12.4073 82.5209 12.1844 82.6158 11.9521 82.6157C11.7198 82.6156 11.4971 82.5206 11.3328 82.3516C11.1686 82.1826 11.0764 81.9535 11.0765 81.7145C11.0766 81.4756 11.1689 81.2465 11.3332 81.0776C11.4976 80.9087 11.7204 80.8139 11.9527 80.814C12.185 80.8141 12.4078 80.909 12.572 81.078C12.7362 81.247 12.8284 81.4762 12.8283 81.7151ZM23.9049 81.7151C23.9048 81.8335 23.8821 81.9507 23.8381 82.06C23.794 82.1693 23.7294 82.2686 23.648 82.3523C23.5666 82.4359 23.47 82.5022 23.3637 82.5475C23.2573 82.5928 23.1434 82.616 23.0284 82.616C22.9133 82.6159 22.7993 82.5926 22.693 82.5473C22.5867 82.502 22.4902 82.4355 22.4089 82.3518C22.3275 82.2681 22.263 82.1688 22.219 82.0594C22.175 81.9501 22.1524 81.8329 22.1524 81.7145C22.1525 81.4755 22.2449 81.2464 22.4093 81.0774C22.5736 80.9085 22.7965 80.8136 23.0289 80.8137C23.2613 80.8138 23.4841 80.9088 23.6484 81.0778C23.8127 81.2469 23.9049 81.4761 23.9049 81.7151ZM34.9814 81.7151C34.9813 81.8335 34.9586 81.9507 34.9145 82.06C34.8705 82.1693 34.8059 82.2686 34.7245 82.3523C34.6431 82.4359 34.5465 82.5022 34.4402 82.5475C34.3339 82.5928 34.2199 82.616 34.1049 82.616C33.9898 82.6159 33.8758 82.5926 33.7695 82.5473C33.6633 82.502 33.5667 82.4355 33.4853 82.3518C33.404 82.2681 33.3395 82.1688 33.2955 82.0594C33.2515 81.9501 33.2289 81.8329 33.2289 81.7145C33.229 81.4756 33.3213 81.2465 33.4857 81.0776C33.65 80.9087 33.8728 80.8139 34.1051 80.814C34.3375 80.8141 34.5602 80.909 34.7244 81.078C34.8886 81.247 34.9814 81.4762 34.9814 81.7151ZM46.0579 81.7151C46.0578 81.8335 46.0351 81.9507 45.9911 82.06C45.947 82.1693 45.8824 82.2686 45.801 82.3523C45.7196 82.4359 45.623 82.5022 45.5167 82.5475C45.4104 82.5928 45.2964 82.616 45.1813 82.616C45.0663 82.6159 44.9524 82.5926 44.8461 82.5473C44.7398 82.502 44.6432 82.4355 44.5618 82.3518C44.4805 82.2681 44.416 82.1688 44.372 82.0594C44.328 81.9501 44.3054 81.8329 44.3054 81.7145C44.3055 81.4756 44.3978 81.2465 44.5622 81.0776C44.7265 80.9087 44.9493 80.8139 45.1816 80.814C45.4139 80.8141 45.6367 80.909 45.8009 81.078C45.9652 81.247 46.058 81.4762 46.0579 81.7151ZM57.1338 81.7151C57.1338 81.954 57.0415 82.1832 56.8772 82.3521C56.713 82.5211 56.4902 82.616 56.2579 82.616C56.0255 82.616 55.8027 82.5211 55.6385 82.3521C55.4742 82.1832 55.3819 81.954 55.3819 81.7151C55.3819 81.4762 55.4742 81.2471 55.6385 81.0781C55.8027 80.9092 56.0255 80.8143 56.2579 80.8143C56.4902 80.8143 56.713 80.9092 56.8772 81.0781C57.0415 81.2471 57.1338 81.4762 57.1338 81.7151ZM68.2103 81.7151C68.2103 81.954 68.118 82.1832 67.9538 82.3521C67.7895 82.5211 67.5667 82.616 67.3344 82.616C67.1021 82.616 66.8793 82.5211 66.715 82.3521C66.5507 82.1832 66.4584 81.954 66.4584 81.7151C66.4584 81.4762 66.5507 81.2471 66.715 81.0781C66.8793 80.9092 67.1021 80.8143 67.3344 80.8143C67.5667 80.8143 67.7895 80.9092 67.9538 81.0781C68.118 81.2471 68.2103 81.4762 68.2103 81.7151ZM79.2874 81.7151C79.2873 81.9541 79.1949 82.1833 79.0305 82.3523C78.8661 82.5212 78.6432 82.6161 78.4108 82.616C78.1784 82.6159 77.9556 82.5209 77.7913 82.3518C77.6271 82.1828 77.5348 81.9535 77.5349 81.7145C77.5349 81.5962 77.5577 81.479 77.6017 81.3697C77.6458 81.2604 77.7104 81.1611 77.7918 81.0774C77.8732 80.9938 77.9698 80.9274 78.0761 80.8821C78.1824 80.8369 78.2964 80.8136 78.4114 80.8137C78.5265 80.8137 78.6404 80.8371 78.7467 80.8824C78.853 80.9277 78.9496 80.9941 79.0309 81.0778C79.1123 81.1615 79.1768 81.2609 79.2208 81.3703C79.2648 81.4796 79.2874 81.5968 79.2874 81.7151ZM90.3639 81.7151C90.3638 81.9541 90.2714 82.1833 90.107 82.3523C89.9426 82.5212 89.7197 82.6161 89.4874 82.616C89.255 82.6159 89.0321 82.5209 88.8679 82.3518C88.7036 82.1828 88.6113 81.9535 88.6114 81.7145C88.6115 81.4756 88.7039 81.2465 88.8682 81.0776C89.0325 80.9087 89.2553 80.8139 89.4876 80.814C89.7199 80.8141 89.9427 80.909 90.1069 81.078C90.2712 81.247 90.3639 81.4762 90.3639 81.7151ZM101.44 81.7151C101.44 81.9542 101.348 82.1835 101.183 82.3525C101.019 82.5215 100.796 82.6164 100.564 82.6163C100.331 82.6162 100.108 82.5212 99.9439 82.3521C99.7795 82.1829 99.6872 81.9536 99.6873 81.7145C99.6874 81.5962 99.7101 81.479 99.7542 81.3697C99.7982 81.2604 99.8628 81.1611 99.9442 81.0774C100.026 80.9938 100.122 80.9274 100.229 80.8821C100.335 80.8369 100.449 80.8136 100.564 80.8137C100.679 80.8137 100.793 80.8371 100.899 80.8824C101.005 80.9277 101.102 80.9941 101.183 81.0778C101.265 81.1615 101.329 81.2609 101.373 81.3703C101.417 81.4796 101.44 81.5968 101.44 81.7151ZM112.516 81.7151C112.516 81.8334 112.494 81.9506 112.45 82.0599C112.405 82.1691 112.341 82.2684 112.26 82.3521C112.178 82.4357 112.082 82.502 111.975 82.5472C111.869 82.5925 111.755 82.6157 111.64 82.6157C111.525 82.6156 111.411 82.5923 111.305 82.547C111.199 82.5017 111.102 82.4353 111.021 82.3516C110.939 82.2679 110.875 82.1686 110.831 82.0593C110.787 81.95 110.764 81.8328 110.764 81.7145C110.765 81.4756 110.857 81.2465 111.021 81.0776C111.185 80.9087 111.408 80.8139 111.641 80.814C111.873 80.8141 112.096 80.909 112.26 81.078C112.424 81.247 112.516 81.4762 112.516 81.7151ZM123.593 81.7151C123.593 81.9541 123.5 82.1833 123.336 82.3523C123.172 82.5212 122.949 82.6161 122.716 82.616C122.484 82.6159 122.261 82.5209 122.097 82.3518C121.933 82.1828 121.84 81.9535 121.84 81.7145C121.84 81.5962 121.863 81.479 121.907 81.3697C121.951 81.2604 122.016 81.1611 122.097 81.0774C122.179 80.9938 122.275 80.9274 122.382 80.8821C122.488 80.8369 122.602 80.8136 122.717 80.8137C122.832 80.8137 122.946 80.8371 123.052 80.8824C123.158 80.9277 123.255 80.9941 123.336 81.0778C123.418 81.1615 123.482 81.2609 123.526 81.3703C123.57 81.4796 123.593 81.5968 123.593 81.7151ZM1.75244 93.2599C1.7524 93.3782 1.72972 93.4954 1.68565 93.6047C1.64158 93.714 1.577 93.8134 1.49561 93.897C1.41421 93.9807 1.31758 94.047 1.21126 94.0923C1.10493 94.1375 0.991004 94.1608 0.875936 94.1608C0.760868 94.1607 0.646911 94.1374 0.540617 94.0921C0.434322 94.0467 0.337782 93.9803 0.256444 93.8966C0.175106 93.8129 0.110578 93.7135 0.0665792 93.6042C0.02258 93.4948 -3.83094e-05 93.3777 4.87065e-08 93.2593C4.87065e-08 93.0204 0.0922808 92.7913 0.256551 92.6223C0.42082 92.4534 0.643623 92.3585 0.875936 92.3585C1.10825 92.3585 1.33105 92.4534 1.49532 92.6223C1.65959 92.7913 1.75244 93.021 1.75244 93.2599ZM12.8283 93.2599C12.8283 93.4988 12.7359 93.7279 12.5716 93.8968C12.4073 94.0657 12.1844 94.1605 11.9521 94.1605C11.7198 94.1604 11.4971 94.0654 11.3328 93.8964C11.1686 93.7274 11.0764 93.4982 11.0765 93.2593C11.0765 93.0204 11.1688 92.7913 11.3331 92.6223C11.4973 92.4534 11.7201 92.3585 11.9524 92.3585C12.1847 92.3585 12.4075 92.4534 12.5718 92.6223C12.7361 92.7913 12.8283 93.021 12.8283 93.2599ZM23.9049 93.2599C23.9048 93.3782 23.8821 93.4954 23.8381 93.6047C23.794 93.714 23.7294 93.8134 23.648 93.897C23.5666 93.9807 23.47 94.047 23.3637 94.0923C23.2573 94.1375 23.1434 94.1608 23.0284 94.1608C22.9133 94.1607 22.7993 94.1374 22.693 94.0921C22.5867 94.0467 22.4902 93.9803 22.4089 93.8966C22.3275 93.8129 22.263 93.7135 22.219 93.6042C22.175 93.4948 22.1524 93.3777 22.1524 93.2593C22.1524 93.0203 22.2447 92.7911 22.409 92.6221C22.5734 92.4531 22.7962 92.3581 23.0286 92.3581C23.261 92.3581 23.4839 92.4531 23.6482 92.6221C23.8126 92.7911 23.9049 93.0209 23.9049 93.2599ZM34.9814 93.2599C34.9813 93.3782 34.9586 93.4954 34.9145 93.6047C34.8705 93.714 34.8059 93.8134 34.7245 93.897C34.6431 93.9807 34.5465 94.047 34.4402 94.0923C34.3339 94.1375 34.2199 94.1608 34.1049 94.1608C33.9898 94.1607 33.8758 94.1374 33.7695 94.0921C33.6633 94.0467 33.5667 93.9803 33.4853 93.8966C33.404 93.8129 33.3395 93.7135 33.2955 93.6042C33.2515 93.4948 33.2289 93.3777 33.2289 93.2593C33.2289 93.0204 33.3212 92.7913 33.4855 92.6223C33.6497 92.4534 33.8726 92.3585 34.1049 92.3585C34.3372 92.3585 34.5599 92.4534 34.7242 92.6223C34.8885 92.7913 34.9814 93.021 34.9814 93.2599ZM46.0579 93.2599C46.0578 93.3782 46.0351 93.4954 45.9911 93.6047C45.947 93.714 45.8824 93.8134 45.801 93.897C45.7196 93.9807 45.623 94.047 45.5167 94.0923C45.4104 94.1375 45.2964 94.1608 45.1813 94.1608C45.0663 94.1607 44.9524 94.1374 44.8461 94.0921C44.7398 94.0467 44.6432 93.9803 44.5618 93.8966C44.4805 93.8129 44.416 93.7135 44.372 93.6042C44.328 93.4948 44.3054 93.3777 44.3054 93.2593C44.3054 93.0204 44.3977 92.7913 44.562 92.6223C44.7262 92.4534 44.949 92.3585 45.1813 92.3585C45.4137 92.3585 45.6365 92.4534 45.8007 92.6223C45.965 92.7913 46.0579 93.021 46.0579 93.2599ZM57.1338 93.2599C57.1338 93.4988 57.0415 93.728 56.8772 93.8969C56.713 94.0659 56.4902 94.1608 56.2579 94.1608C56.0255 94.1608 55.8027 94.0659 55.6385 93.8969C55.4742 93.728 55.3819 93.4988 55.3819 93.2599C55.3819 93.021 55.4742 92.7918 55.6385 92.6229C55.8027 92.454 56.0255 92.359 56.2579 92.359C56.4902 92.359 56.713 92.454 56.8772 92.6229C57.0415 92.7918 57.1338 93.021 57.1338 93.2599ZM68.2103 93.2599C68.2103 93.4988 68.118 93.728 67.9538 93.8969C67.7895 94.0659 67.5667 94.1608 67.3344 94.1608C67.1021 94.1608 66.8793 94.0659 66.715 93.8969C66.5507 93.728 66.4584 93.4988 66.4584 93.2599C66.4584 93.021 66.5507 92.7918 66.715 92.6229C66.8793 92.454 67.1021 92.359 67.3344 92.359C67.5667 92.359 67.7895 92.454 67.9538 92.6229C68.118 92.7918 68.2103 93.021 68.2103 93.2599ZM79.2874 93.2599C79.2873 93.4989 79.1949 93.7281 79.0305 93.897C78.8661 94.066 78.6432 94.1608 78.4108 94.1608C78.1784 94.1607 77.9556 94.0657 77.7913 93.8966C77.6271 93.7276 77.5348 93.4983 77.5349 93.2593C77.5349 93.0203 77.6272 92.7911 77.7916 92.6221C77.9559 92.4531 78.1788 92.3581 78.4112 92.3581C78.6436 92.3581 78.8664 92.4531 79.0307 92.6221C79.195 92.7911 79.2874 93.0209 79.2874 93.2599ZM90.3639 93.2599C90.3638 93.4989 90.2714 93.7281 90.107 93.897C89.9426 94.066 89.7197 94.1608 89.4874 94.1608C89.255 94.1607 89.0321 94.0657 88.8679 93.8966C88.7036 93.7276 88.6113 93.4983 88.6114 93.2593C88.6114 93.0204 88.7037 92.7913 88.868 92.6223C89.0322 92.4534 89.255 92.3585 89.4874 92.3585C89.7197 92.3585 89.9425 92.4534 90.1067 92.6223C90.271 92.7913 90.3639 93.021 90.3639 93.2599ZM101.44 93.2599C101.44 93.3783 101.418 93.4955 101.374 93.6048C101.329 93.7142 101.265 93.8136 101.183 93.8972C101.102 93.9809 101.005 94.0473 100.899 94.0925C100.793 94.1378 100.679 94.1611 100.564 94.1611C100.448 94.161 100.334 94.1377 100.228 94.0923C100.122 94.047 100.025 93.9805 99.9439 93.8968C99.8625 93.8131 99.798 93.7137 99.7539 93.6043C99.7099 93.4949 99.6873 93.3777 99.6873 93.2593C99.6873 93.0203 99.7797 92.7911 99.944 92.6221C100.108 92.4531 100.331 92.3581 100.564 92.3581C100.796 92.3581 101.019 92.4531 101.183 92.6221C101.347 92.7911 101.44 93.0209 101.44 93.2599ZM112.516 93.2599C112.516 93.3782 112.494 93.4953 112.45 93.6046C112.405 93.7139 112.341 93.8132 112.26 93.8968C112.178 93.9804 112.082 94.0468 111.975 94.092C111.869 94.1372 111.755 94.1605 111.64 94.1605C111.525 94.1604 111.411 94.1371 111.305 94.0918C111.199 94.0465 111.102 93.9801 111.021 93.8964C110.939 93.8127 110.875 93.7134 110.831 93.6041C110.787 93.4948 110.764 93.3776 110.764 93.2593C110.764 93.0204 110.857 92.7913 111.021 92.6223C111.185 92.4534 111.408 92.3585 111.64 92.3585C111.873 92.3585 112.095 92.4534 112.26 92.6223C112.424 92.7913 112.516 93.021 112.516 93.2599ZM123.593 93.2599C123.593 93.4989 123.5 93.7281 123.336 93.897C123.172 94.066 122.949 94.1608 122.716 94.1608C122.484 94.1607 122.261 94.0657 122.097 93.8966C121.933 93.7276 121.84 93.4983 121.84 93.2593C121.84 93.0203 121.933 92.7911 122.097 92.6221C122.261 92.4531 122.484 92.3581 122.717 92.3581C122.949 92.3581 123.172 92.4531 123.336 92.6221C123.5 92.7911 123.593 93.0209 123.593 93.2599ZM1.75244 104.804C1.75244 105.043 1.66016 105.272 1.49589 105.441C1.33162 105.61 1.10882 105.705 0.876506 105.705C0.644194 105.705 0.421391 105.61 0.257121 105.441C0.092851 105.272 0.000570319 105.043 0.000570319 104.804C0.000570319 104.565 0.092851 104.336 0.257121 104.167C0.421391 103.998 0.644194 103.903 0.876506 103.903C1.10882 103.903 1.33162 103.998 1.49589 104.167C1.66016 104.336 1.75244 104.565 1.75244 104.804ZM12.8283 104.804C12.8283 105.043 12.7361 105.272 12.5718 105.441C12.4075 105.61 12.1847 105.705 11.9524 105.705C11.7201 105.705 11.4973 105.61 11.3331 105.441C11.1688 105.272 11.0765 105.043 11.0765 104.804C11.0765 104.565 11.1688 104.336 11.3331 104.167C11.4973 103.998 11.7201 103.903 11.9524 103.903C12.1847 103.903 12.4075 103.998 12.5718 104.167C12.7361 104.336 12.8283 104.565 12.8283 104.804ZM23.9049 104.804C23.9049 105.043 23.8126 105.272 23.6483 105.441C23.484 105.61 23.2612 105.705 23.0289 105.705C22.7966 105.705 22.5738 105.61 22.4095 105.441C22.2453 105.272 22.153 105.043 22.153 104.804C22.153 104.565 22.2453 104.336 22.4095 104.167C22.5738 103.998 22.7966 103.903 23.0289 103.903C23.2612 103.903 23.484 103.998 23.6483 104.167C23.8126 104.336 23.9049 104.565 23.9049 104.804ZM34.9814 104.804C34.9814 105.043 34.8891 105.272 34.7248 105.441C34.5605 105.61 34.3377 105.705 34.1054 105.705C33.8731 105.705 33.6503 105.61 33.486 105.441C33.3218 105.272 33.2295 105.043 33.2295 104.804C33.2295 104.565 33.3218 104.336 33.486 104.167C33.6503 103.998 33.8731 103.903 34.1054 103.903C34.3377 103.903 34.5605 103.998 34.7248 104.167C34.8891 104.336 34.9814 104.565 34.9814 104.804ZM46.0579 104.804C46.0579 105.043 45.9656 105.272 45.8013 105.441C45.637 105.61 45.4143 105.705 45.1819 105.705C44.9496 105.705 44.7268 105.61 44.5626 105.441C44.3983 105.272 44.306 105.043 44.306 104.804C44.306 104.565 44.3983 104.336 44.5626 104.167C44.7268 103.998 44.9496 103.903 45.1819 103.903C45.4143 103.903 45.637 103.998 45.8013 104.167C45.9656 104.336 46.0579 104.565 46.0579 104.804ZM57.1338 104.804C57.1382 104.925 57.1188 105.046 57.0768 105.159C57.0348 105.272 56.9711 105.375 56.8895 105.462C56.8078 105.55 56.7099 105.619 56.6016 105.666C56.4933 105.714 56.3768 105.738 56.259 105.738C56.1413 105.739 56.0248 105.714 55.9164 105.667C55.808 105.62 55.71 105.55 55.6283 105.463C55.5465 105.376 55.4827 105.273 55.4405 105.16C55.3984 105.047 55.3789 104.926 55.3831 104.805C55.3912 104.572 55.4869 104.351 55.6501 104.189C55.8132 104.027 56.0311 103.937 56.2579 103.937C56.4847 103.937 56.7026 104.027 56.866 104.189C57.0294 104.35 57.1254 104.571 57.1338 104.804ZM68.2103 104.804C68.2147 104.925 68.1953 105.046 68.1533 105.159C68.1113 105.272 68.0476 105.375 67.9659 105.462C67.8843 105.55 67.7864 105.619 67.6781 105.666C67.5697 105.714 67.4533 105.738 67.3355 105.738C67.2178 105.739 67.1013 105.714 66.9929 105.667C66.8845 105.62 66.7865 105.55 66.7048 105.463C66.623 105.376 66.5591 105.273 66.517 105.16C66.4749 105.047 66.4553 104.926 66.4596 104.805C66.4677 104.572 66.5634 104.351 66.7266 104.189C66.8897 104.027 67.1076 103.937 67.3344 103.937C67.5611 103.937 67.7792 104.027 67.9425 104.189C68.1059 104.35 68.2019 104.571 68.2103 104.804ZM79.2874 104.804C79.2874 105.043 79.1951 105.272 79.0308 105.441C78.8666 105.61 78.6438 105.705 78.4114 105.705C78.1791 105.705 77.9563 105.61 77.7921 105.441C77.6278 105.272 77.5355 105.043 77.5355 104.804C77.5355 104.565 77.6278 104.336 77.7921 104.167C77.9563 103.998 78.1791 103.903 78.4114 103.903C78.6438 103.903 78.8666 103.998 79.0308 104.167C79.1951 104.336 79.2874 104.565 79.2874 104.804ZM90.3639 104.804C90.3639 105.043 90.2716 105.272 90.1073 105.441C89.943 105.61 89.7202 105.705 89.4879 105.705C89.2556 105.705 89.0328 105.61 88.8686 105.441C88.7043 105.272 88.612 105.043 88.612 104.804C88.612 104.565 88.7043 104.336 88.8686 104.167C89.0328 103.998 89.2556 103.903 89.4879 103.903C89.7202 103.903 89.943 103.998 90.1073 104.167C90.2716 104.336 90.3639 104.565 90.3639 104.804ZM101.44 104.804C101.44 105.043 101.348 105.272 101.184 105.441C101.02 105.61 100.797 105.705 100.564 105.705C100.332 105.705 100.109 105.61 99.945 105.441C99.7808 105.272 99.6885 105.043 99.6885 104.804C99.6885 104.565 99.7808 104.336 99.945 104.167C100.109 103.998 100.332 103.903 100.564 103.903C100.797 103.903 101.02 103.998 101.184 104.167C101.348 104.336 101.44 104.565 101.44 104.804ZM112.516 104.804C112.516 105.043 112.424 105.272 112.26 105.441C112.095 105.61 111.873 105.705 111.64 105.705C111.408 105.705 111.185 105.61 111.021 105.441C110.857 105.272 110.764 105.043 110.764 104.804C110.764 104.565 110.857 104.336 111.021 104.167C111.185 103.998 111.408 103.903 111.64 103.903C111.873 103.903 112.095 103.998 112.26 104.167C112.424 104.336 112.516 104.565 112.516 104.804ZM123.593 104.804C123.593 105.043 123.501 105.272 123.336 105.441C123.172 105.61 122.949 105.705 122.717 105.705C122.485 105.705 122.262 105.61 122.097 105.441C121.933 105.272 121.841 105.043 121.841 104.804C121.841 104.565 121.933 104.336 122.097 104.167C122.262 103.998 122.485 103.903 122.717 103.903C122.949 103.903 123.172 103.998 123.336 104.167C123.501 104.336 123.593 104.565 123.593 104.804ZM1.75244 116.349C1.7524 116.468 1.72972 116.585 1.68565 116.694C1.64158 116.804 1.577 116.903 1.49561 116.987C1.41421 117.07 1.31758 117.137 1.21126 117.182C1.10493 117.227 0.991004 117.25 0.875936 117.25C0.760868 117.25 0.646911 117.227 0.540617 117.182C0.434322 117.136 0.337782 117.07 0.256444 116.986C0.175106 116.902 0.110578 116.803 0.0665792 116.694C0.02258 116.584 -3.83094e-05 116.467 4.87065e-08 116.349C4.87065e-08 116.11 0.0922808 115.881 0.256551 115.712C0.42082 115.543 0.643623 115.448 0.875936 115.448C1.10825 115.448 1.33105 115.543 1.49532 115.712C1.65959 115.881 1.75244 116.111 1.75244 116.349ZM12.8283 116.349C12.8283 116.588 12.7359 116.817 12.5716 116.986C12.4073 117.155 12.1844 117.25 11.9521 117.25C11.7198 117.25 11.4971 117.155 11.3328 116.986C11.1686 116.817 11.0764 116.588 11.0765 116.349C11.0765 116.11 11.1688 115.881 11.3331 115.712C11.4973 115.543 11.7201 115.448 11.9524 115.448C12.1847 115.448 12.4075 115.543 12.5718 115.712C12.7361 115.881 12.8283 116.111 12.8283 116.349ZM23.9049 116.349C23.9048 116.468 23.8821 116.585 23.8381 116.694C23.794 116.804 23.7294 116.903 23.648 116.987C23.5666 117.07 23.47 117.137 23.3637 117.182C23.2573 117.227 23.1434 117.25 23.0284 117.25C22.9133 117.25 22.7993 117.227 22.693 117.182C22.5867 117.136 22.4902 117.07 22.4089 116.986C22.3275 116.902 22.263 116.803 22.219 116.694C22.175 116.584 22.1524 116.467 22.1524 116.349C22.1524 116.11 22.2447 115.881 22.409 115.712C22.5734 115.543 22.7962 115.448 23.0286 115.448C23.261 115.448 23.4839 115.543 23.6482 115.712C23.8126 115.881 23.9049 116.11 23.9049 116.349ZM34.9814 116.349C34.9813 116.468 34.9586 116.585 34.9145 116.694C34.8705 116.804 34.8059 116.903 34.7245 116.987C34.6431 117.07 34.5465 117.137 34.4402 117.182C34.3339 117.227 34.2199 117.25 34.1049 117.25C33.9898 117.25 33.8758 117.227 33.7695 117.182C33.6633 117.136 33.5667 117.07 33.4853 116.986C33.404 116.902 33.3395 116.803 33.2955 116.694C33.2515 116.584 33.2289 116.467 33.2289 116.349C33.2289 116.11 33.3212 115.881 33.4855 115.712C33.6497 115.543 33.8726 115.448 34.1049 115.448C34.3372 115.448 34.5599 115.543 34.7242 115.712C34.8885 115.881 34.9814 116.111 34.9814 116.349ZM46.0579 116.349C46.0578 116.468 46.0351 116.585 45.9911 116.694C45.947 116.804 45.8824 116.903 45.801 116.987C45.7196 117.07 45.623 117.137 45.5167 117.182C45.4104 117.227 45.2964 117.25 45.1813 117.25C45.0663 117.25 44.9524 117.227 44.8461 117.182C44.7398 117.136 44.6432 117.07 44.5618 116.986C44.4805 116.902 44.416 116.803 44.372 116.694C44.328 116.584 44.3054 116.467 44.3054 116.349C44.3054 116.11 44.3977 115.881 44.562 115.712C44.7262 115.543 44.949 115.448 45.1813 115.448C45.4137 115.448 45.6365 115.543 45.8007 115.712C45.965 115.881 46.0579 116.111 46.0579 116.349ZM57.1338 116.349C57.1338 116.588 57.0415 116.817 56.8772 116.986C56.713 117.155 56.4902 117.25 56.2579 117.25C56.0255 117.25 55.8027 117.155 55.6385 116.986C55.4742 116.817 55.3819 116.588 55.3819 116.349C55.3819 116.111 55.4742 115.881 55.6385 115.712C55.8027 115.543 56.0255 115.449 56.2579 115.449C56.4902 115.449 56.713 115.543 56.8772 115.712C57.0415 115.881 57.1338 116.111 57.1338 116.349ZM68.2103 116.349C68.2103 116.588 68.118 116.817 67.9538 116.986C67.7895 117.155 67.5667 117.25 67.3344 117.25C67.1021 117.25 66.8793 117.155 66.715 116.986C66.5507 116.817 66.4584 116.588 66.4584 116.349C66.4584 116.111 66.5507 115.881 66.715 115.712C66.8793 115.543 67.1021 115.449 67.3344 115.449C67.5667 115.449 67.7895 115.543 67.9538 115.712C68.118 115.881 68.2103 116.111 68.2103 116.349ZM79.2874 116.349C79.2873 116.588 79.1949 116.818 79.0305 116.987C78.8661 117.156 78.6432 117.25 78.4108 117.25C78.1784 117.25 77.9556 117.155 77.7913 116.986C77.6271 116.817 77.5348 116.588 77.5349 116.349C77.5349 116.11 77.6272 115.881 77.7916 115.712C77.9559 115.543 78.1788 115.448 78.4112 115.448C78.6436 115.448 78.8664 115.543 79.0307 115.712C79.195 115.881 79.2874 116.11 79.2874 116.349ZM90.3639 116.349C90.3638 116.588 90.2714 116.818 90.107 116.987C89.9426 117.156 89.7197 117.25 89.4874 117.25C89.255 117.25 89.0321 117.155 88.8679 116.986C88.7036 116.817 88.6113 116.588 88.6114 116.349C88.6114 116.11 88.7037 115.881 88.868 115.712C89.0322 115.543 89.255 115.448 89.4874 115.448C89.7197 115.448 89.9425 115.543 90.1067 115.712C90.271 115.881 90.3639 116.111 90.3639 116.349ZM101.44 116.349C101.44 116.589 101.348 116.818 101.183 116.987C101.019 117.156 100.796 117.251 100.564 117.251C100.331 117.251 100.108 117.155 99.9439 116.986C99.7795 116.817 99.6872 116.588 99.6873 116.349C99.6873 116.11 99.7797 115.881 99.944 115.712C100.108 115.543 100.331 115.448 100.564 115.448C100.796 115.448 101.019 115.543 101.183 115.712C101.347 115.881 101.44 116.11 101.44 116.349ZM112.516 116.349C112.516 116.468 112.494 116.585 112.45 116.694C112.405 116.803 112.341 116.903 112.26 116.986C112.178 117.07 112.082 117.136 111.975 117.182C111.869 117.227 111.755 117.25 111.64 117.25C111.525 117.25 111.411 117.227 111.305 117.181C111.199 117.136 111.102 117.07 111.021 116.986C110.939 116.902 110.875 116.803 110.831 116.694C110.787 116.584 110.764 116.467 110.764 116.349C110.764 116.11 110.857 115.881 111.021 115.712C111.185 115.543 111.408 115.448 111.64 115.448C111.873 115.448 112.095 115.543 112.26 115.712C112.424 115.881 112.516 116.111 112.516 116.349ZM123.593 116.349C123.593 116.588 123.5 116.818 123.336 116.987C123.172 117.156 122.949 117.25 122.716 117.25C122.484 117.25 122.261 117.155 122.097 116.986C121.933 116.817 121.84 116.588 121.84 116.349C121.84 116.11 121.933 115.881 122.097 115.712C122.261 115.543 122.484 115.448 122.717 115.448C122.949 115.448 123.172 115.543 123.336 115.712C123.5 115.881 123.593 116.11 123.593 116.349Z" fill="white"/>
</svg>
